<?xml version="1.0" encoding="UTF-8" ?>
<!DOCTYPE svg PUBLIC "-//W3C//DTD SVG 1.1//EN" "http://www.w3.org/Graphics/SVG/1.1/DTD/svg11.dtd">
<svg width="256px" height="256px" viewBox="0 0 256 256" version="1.1" xmlns="http://www.w3.org/2000/svg">
<g id="#3164faff">
<path fill="#3164fa" opacity="1.00" d=" M 98.51 0.00 L 106.54 0.00 C 145.24 1.58 183.35 14.28 215.58 35.71 C 215.87 38.79 216.04 41.88 216.23 44.96 C 217.74 46.11 219.14 47.44 219.90 49.21 C 223.71 56.89 225.67 65.43 225.99 73.98 C 226.73 89.09 220.56 104.26 210.06 115.06 C 207.96 117.60 204.43 117.56 201.61 118.79 C 194.50 121.66 189.51 128.26 187.41 135.49 C 175.68 142.33 162.34 146.11 148.88 147.41 C 127.94 149.40 106.21 145.62 87.80 135.25 C 75.67 128.46 65.21 118.25 59.34 105.54 C 52.13 89.62 51.66 70.37 59.53 54.60 C 66.50 40.27 79.14 29.61 92.58 21.53 C 96.90 18.90 101.44 16.37 106.57 15.84 C 101.05 10.83 95.65 5.70 90.13 0.69 C 92.92 0.42 95.71 0.13 98.51 0.00 M 151.31 31.90 C 159.12 41.61 171.12 47.14 183.06 49.81 C 186.95 48.98 189.81 45.47 192.70 42.85 C 198.19 43.71 203.60 45.08 208.92 46.69 C 191.73 36.15 171.33 31.68 151.31 31.90 Z" />
<path fill="#3164fa" opacity="1.00" d=" M 24.73 56.71 C 40.12 37.19 62.12 22.98 86.33 17.26 C 76.73 23.37 67.33 30.25 60.46 39.46 C 50.78 51.67 45.66 67.41 46.63 82.99 C 47.25 98.97 53.71 114.67 64.73 126.28 C 77.14 139.65 94.13 148.09 111.75 152.17 C 136.55 157.83 163.49 155.67 186.42 144.33 C 186.88 156.71 195.56 167.25 206.26 172.71 C 221.43 180.54 239.50 181.80 256.00 178.01 L 256.00 178.03 C 242.30 203.73 221.37 225.75 195.74 239.73 C 177.62 249.71 157.15 255.23 136.50 256.00 L 128.46 256.00 C 97.42 255.16 66.79 243.31 43.52 222.71 C 17.38 199.96 0.88 166.30 0.00 131.56 L 0.00 124.41 C 0.82 99.99 9.40 75.80 24.73 56.71 Z" />
<path fill="#3164fa" opacity="1.00" d=" M 229.68 53.78 C 240.22 62.04 249.24 73.43 251.08 87.06 C 252.64 98.99 250.53 111.72 244.09 121.99 C 239.25 129.58 231.51 135.41 222.63 137.27 C 224.01 134.32 225.43 131.15 224.90 127.81 C 224.45 123.39 221.13 119.88 217.26 118.04 C 227.76 106.02 233.97 90.02 233.24 73.98 C 233.10 67.11 231.70 60.33 229.68 53.78 Z" />
</g>
</svg>
