<?xml version="1.0" encoding="UTF-8" ?>
<!DOCTYPE svg PUBLIC "-//W3C//DTD SVG 1.1//EN" "http://www.w3.org/Graphics/SVG/1.1/DTD/svg11.dtd">
<svg width="999pt" height="1010pt" viewBox="0 0 999 1010" version="1.1" xmlns="http://www.w3.org/2000/svg">
<g id="#000000ff">
<path fill="#000000" opacity="1.00" d=" M 463.57 1.86 C 474.70 1.17 485.87 0.91 497.03 0.97 C 509.24 1.45 520.21 11.07 522.75 22.95 C 524.22 28.58 522.81 34.35 522.56 40.03 C 521.75 54.97 525.52 70.11 533.17 82.97 C 542.65 99.00 558.12 111.46 575.95 116.97 C 594.03 122.76 614.23 121.49 631.42 113.42 C 650.24 104.77 665.22 88.13 671.64 68.42 C 673.78 61.26 678.48 54.81 685.06 51.15 C 693.08 46.50 703.38 46.13 711.69 50.26 C 754.53 70.82 794.47 97.44 829.86 129.16 C 840.76 139.45 840.59 158.48 830.05 168.96 C 761.54 237.46 693.00 305.94 624.45 374.41 C 614.99 383.68 598.92 384.56 588.36 376.65 C 559.66 355.44 523.70 344.32 488.03 345.76 C 453.43 346.86 419.38 359.73 392.67 381.73 C 367.47 402.31 348.76 430.76 340.06 462.13 C 329.88 498.30 332.99 538.07 348.88 572.14 C 363.36 603.55 388.37 629.93 418.93 646.11 C 449.34 662.38 485.11 668.18 519.13 662.70 C 540.12 659.36 560.42 651.73 578.42 640.43 C 584.09 637.17 588.88 632.37 595.16 630.22 C 602.63 627.36 611.34 627.62 618.40 631.51 C 623.10 633.95 626.60 638.01 630.31 641.68 C 694.83 706.18 759.34 770.67 823.85 835.16 C 827.96 839.38 832.69 843.26 835.21 848.73 C 840.16 858.55 838.59 871.14 831.45 879.49 C 828.15 883.16 824.12 886.08 820.44 889.36 C 789.71 915.75 755.61 938.16 719.40 956.30 C 713.55 959.13 707.72 962.67 701.05 962.91 C 688.59 963.91 676.10 955.67 672.30 943.73 C 668.53 932.29 662.41 921.55 653.87 912.99 C 641.35 899.97 624.01 891.73 606.02 890.11 C 588.06 888.43 569.57 893.37 554.86 903.81 C 537.19 916.28 525.18 936.45 522.92 957.99 C 521.96 965.33 522.68 972.72 523.36 980.05 C 524.37 994.84 511.81 1008.87 496.99 1009.42 C 419.37 1010.01 341.59 992.49 271.95 958.13 C 258.38 950.87 253.31 931.76 261.71 918.81 C 269.18 907.53 274.15 894.51 275.09 880.97 C 276.52 863.30 271.57 845.19 261.29 830.74 C 249.77 814.37 231.60 802.82 211.83 799.51 C 189.65 795.59 165.90 802.10 148.87 816.86 C 144.15 820.78 140.36 825.97 134.61 828.51 C 123.84 833.86 109.73 831.36 101.66 822.39 C 53.75 763.42 19.44 693.46 2.36 619.41 C 0.55 613.24 0.20 606.51 2.48 600.41 C 6.02 590.04 15.99 582.30 26.93 581.54 C 42.56 580.12 57.82 574.04 69.78 563.82 C 81.80 553.79 90.70 540.03 94.66 524.86 C 99.04 508.44 97.78 490.56 91.02 474.96 C 82.58 455.26 65.51 439.44 45.18 432.65 C 38.06 430.04 30.48 429.33 23.05 428.18 C 8.82 425.39 -1.42 410.30 1.23 396.04 C 17.63 321.18 51.70 250.34 99.58 190.53 C 104.82 183.06 113.99 178.75 123.05 179.04 C 130.56 179.17 137.88 182.49 143.00 187.96 C 152.76 198.12 165.20 205.71 178.84 209.31 C 195.54 213.84 213.77 212.51 229.59 205.50 C 247.50 197.66 262.20 182.73 269.56 164.60 C 278.69 142.75 276.86 116.70 264.66 96.39 C 261.91 91.88 258.84 87.34 258.07 81.98 C 256.23 72.29 259.94 61.82 267.43 55.42 C 270.57 52.59 274.49 50.91 278.28 49.16 C 336.22 21.63 399.53 5.55 463.57 1.86 Z" />
<path fill="#000000" opacity="1.00" d=" M 874.25 185.26 C 878.30 184.53 882.63 185.63 885.83 188.22 C 895.40 196.64 898.06 211.70 891.84 222.86 C 889.28 227.76 885.14 231.64 880.40 234.39 C 866.65 242.79 855.58 255.52 849.44 270.44 C 842.91 285.99 841.70 303.73 846.20 320.00 C 850.96 337.62 862.23 353.41 877.46 363.49 C 896.81 376.56 922.24 380.04 944.36 372.53 C 949.65 370.61 955.25 368.96 960.94 369.81 C 972.70 371.01 983.08 380.29 985.42 391.90 C 1002.41 465.65 1002.41 543.22 985.75 617.03 C 983.64 630.63 970.67 641.37 956.89 640.72 C 951.63 640.75 946.81 638.45 941.86 637.03 C 924.69 631.88 905.73 633.12 889.34 640.34 C 874.79 646.66 862.33 657.64 854.28 671.30 C 845.20 686.49 841.60 704.87 844.41 722.36 C 847.72 744.28 861.12 764.43 880.20 775.78 C 886.98 779.62 892.34 786.05 894.29 793.66 C 897.23 804.11 893.39 816.14 884.85 822.85 C 878.74 827.16 870.17 824.86 865.36 819.65 C 792.16 746.49 718.96 673.33 645.79 600.14 C 637.60 591.99 635.57 578.80 640.33 568.37 C 656.39 531.66 657.51 488.87 643.91 451.23 C 641.87 444.81 638.12 438.83 637.74 431.97 C 637.13 423.90 640.28 415.71 645.98 409.99 C 718.64 337.32 791.35 264.70 864.00 192.02 C 866.83 189.04 869.97 185.87 874.25 185.26 M 731.63 422.73 C 735.65 433.04 739.67 443.36 743.70 453.67 C 752.74 446.87 763.01 441.34 774.23 439.31 C 782.95 437.80 792.39 438.29 800.35 442.46 C 808.14 446.58 812.29 455.49 812.61 464.03 C 812.95 473.45 809.05 482.39 804.24 490.27 C 796.71 502.39 786.70 512.69 776.55 522.62 C 761.22 537.68 745.22 552.05 729.39 566.60 C 729.34 575.40 729.38 584.19 729.37 592.99 C 772.54 593.02 815.71 593.01 858.87 593.00 C 858.87 581.05 858.88 569.11 858.87 557.18 C 835.70 557.12 812.53 557.27 789.36 557.10 C 807.89 540.85 827.57 525.13 841.15 504.23 C 849.87 490.87 855.96 475.19 855.36 459.03 C 854.75 443.30 848.21 427.27 835.70 417.30 C 822.68 406.83 805.43 403.28 789.05 403.57 C 768.65 404.20 747.90 410.09 731.63 422.73 Z" />
</g>
</svg>
