<?xml version="1.0" encoding="UTF-8" ?>
<!DOCTYPE svg PUBLIC "-//W3C//DTD SVG 1.1//EN" "http://www.w3.org/Graphics/SVG/1.1/DTD/svg11.dtd">
<svg width="1088pt" height="1091pt" viewBox="0 0 1088 1091" version="1.1" xmlns="http://www.w3.org/2000/svg">
<g id="#e40303ff">
<path fill="#e40303" opacity="1.00" d=" M 516.08 11.16 C 520.40 10.12 524.88 10.96 529.25 10.35 C 536.43 9.02 543.75 9.82 551.00 9.62 C 558.25 9.82 565.58 9.02 572.75 10.36 C 577.48 10.97 582.28 10.22 587.00 10.85 C 593.81 12.82 600.92 13.57 608.00 13.61 C 611.19 13.53 614.18 14.77 617.25 15.42 C 622.65 16.47 628.21 16.57 633.49 18.25 C 639.10 19.29 644.54 21.34 650.29 21.58 C 653.98 21.69 657.39 23.29 660.98 23.97 C 670.34 25.27 679.33 28.35 688.54 30.36 C 694.54 30.76 699.88 33.71 705.60 35.24 C 713.64 36.64 721.13 40.15 729.13 41.72 C 738.35 44.15 746.69 48.87 755.61 52.12 C 758.47 52.96 761.69 51.97 764.37 53.57 C 771.91 57.26 779.61 60.63 787.53 63.44 C 795.07 67.10 803.49 68.70 810.61 73.24 C 821.25 76.91 831.06 82.58 840.99 87.79 C 849.00 91.12 854.95 98.13 863.26 100.87 C 869.62 103.39 874.66 108.14 880.56 111.46 C 885.28 114.69 889.53 118.63 894.65 121.24 C 900.15 123.82 903.22 129.43 908.24 132.68 C 914.54 136.58 919.03 142.60 924.47 147.52 C 928.41 151.02 930.57 155.99 934.42 159.57 C 936.06 161.25 937.89 162.76 939.35 164.62 C 940.97 166.98 941.20 169.99 942.76 172.39 C 944.47 175.09 946.43 177.73 947.20 180.90 C 947.47 182.14 947.78 183.38 948.10 184.62 C 846.41 184.34 744.70 184.58 643.00 184.50 C 481.33 184.50 319.66 184.50 157.99 184.50 C 151.78 184.54 145.55 184.58 139.34 184.24 C 141.62 179.77 144.90 175.93 147.43 171.62 C 150.81 164.62 157.52 160.24 162.51 154.52 C 166.39 149.94 172.02 147.44 176.08 143.08 C 179.66 139.66 182.63 135.37 187.28 133.29 C 190.89 131.79 193.18 128.51 196.19 126.18 C 201.71 122.77 207.14 119.17 212.46 115.47 C 215.02 112.48 218.69 111.27 222.32 110.17 C 225.45 107.41 229.07 105.43 232.84 103.70 C 238.39 99.69 245.10 97.70 250.55 93.54 C 253.89 90.93 258.41 91.10 262.03 89.03 C 265.91 87.33 268.53 83.51 272.73 82.48 C 278.63 80.87 283.57 76.95 289.52 75.45 C 293.49 74.50 296.53 71.63 300.22 70.10 C 309.05 67.74 317.09 63.13 325.93 60.75 C 331.59 59.38 336.26 55.67 341.70 53.76 C 351.26 51.37 360.24 47.15 369.73 44.48 C 375.34 42.09 381.33 40.91 387.10 39.00 C 389.42 38.27 391.95 38.86 394.28 38.15 C 408.00 31.24 423.56 29.68 438.01 24.83 C 443.14 24.81 447.88 22.78 452.83 21.73 C 459.80 21.16 466.50 19.03 473.22 17.20 C 476.54 16.23 480.05 16.80 483.46 16.46 C 487.76 16.14 491.64 13.73 495.98 13.63 C 502.74 13.52 509.53 12.87 516.08 11.16 Z" />
</g>
<g id="#ff8c00ff">
<path fill="#ff8c00" opacity="1.00" d=" M 947.20 180.90 C 948.40 181.45 948.81 182.81 948.82 184.04 C 949.18 188.15 951.66 191.81 951.64 195.98 C 951.60 199.82 951.84 203.69 951.44 207.52 C 949.61 213.19 948.34 219.09 945.42 224.35 C 941.52 230.77 938.71 237.94 933.44 243.44 C 928.38 248.40 924.29 254.26 918.97 258.97 C 912.56 264.57 906.08 270.09 899.85 275.87 C 892.06 279.83 886.20 286.63 878.34 290.51 C 864.24 297.99 851.78 308.79 836.31 313.48 C 834.21 314.66 832.47 316.44 830.19 317.32 C 823.33 319.88 817.61 324.90 810.45 326.71 C 807.21 327.42 804.82 329.87 801.79 331.03 C 792.68 333.98 783.96 337.96 774.96 341.22 C 769.53 344.21 763.45 345.56 757.77 347.96 C 753.21 348.94 748.97 351.03 744.36 351.76 C 741.96 352.40 739.83 353.76 737.49 354.56 C 733.50 356.20 729.16 356.68 725.20 358.37 C 719.14 361.14 712.22 361.24 706.26 364.27 C 703.52 365.80 700.37 365.29 697.40 365.60 C 692.75 367.38 688.40 370.45 683.25 370.55 C 679.03 370.78 675.40 373.64 671.12 373.49 C 667.81 373.39 665.04 375.44 661.98 376.33 C 659.29 376.69 656.47 376.06 653.90 377.03 C 649.08 378.95 644.02 380.17 638.99 381.33 C 633.19 381.47 627.44 382.43 621.93 384.23 C 616.71 384.56 611.39 384.88 606.40 386.57 C 602.37 388.20 597.93 386.88 593.78 387.89 C 590.29 388.86 586.50 387.83 583.13 389.32 C 578.98 391.16 574.38 390.19 570.01 390.43 C 566.97 390.37 564.08 391.56 561.04 391.44 C 548.35 391.42 535.65 391.42 522.96 391.44 C 520.50 391.54 518.16 390.77 515.75 390.52 C 509.73 390.11 503.68 390.84 497.68 390.18 C 497.45 389.87 496.99 389.24 496.75 388.92 L 497.09 388.49 C 510.09 387.83 523.00 389.99 536.00 389.50 C 546.51 389.31 557.04 389.96 567.52 388.92 C 578.71 388.45 589.83 387.08 600.98 386.00 C 614.69 383.80 628.37 381.38 642.08 379.25 C 650.44 376.59 659.08 375.02 667.65 373.18 C 675.25 370.62 683.60 370.46 690.61 366.21 C 683.77 365.35 676.87 365.60 670.00 365.63 C 580.67 365.63 491.33 365.63 402.00 365.63 C 396.25 365.79 389.99 364.35 384.80 367.59 C 382.19 369.73 379.71 366.68 377.30 365.72 C 375.22 365.31 373.09 365.54 371.00 365.29 C 362.04 362.46 352.73 360.91 343.93 357.51 C 338.45 355.18 332.31 354.96 327.03 352.18 C 322.70 350.24 317.89 349.64 313.69 347.40 C 309.79 345.18 304.89 345.96 301.28 343.10 C 299.25 341.45 296.62 341.60 294.22 341.06 C 290.43 339.57 286.84 337.59 283.02 336.15 C 279.99 335.02 276.62 334.91 273.74 333.36 C 267.35 329.17 260.01 326.78 252.83 324.30 C 246.04 321.73 240.29 317.07 233.44 314.65 C 227.03 312.07 221.12 308.52 215.31 304.83 C 210.56 303.22 206.87 299.69 202.26 297.80 C 197.93 296.06 194.89 292.30 190.68 290.36 C 186.74 288.44 184.37 284.37 180.29 282.66 C 176.14 280.74 173.25 277.06 169.68 274.31 C 164.67 269.66 159.06 265.62 154.67 260.34 C 148.54 252.74 140.57 246.28 137.04 236.90 C 134.31 231.33 130.99 225.80 130.51 219.46 C 130.27 214.55 130.30 209.61 130.53 204.70 C 130.70 200.88 132.67 197.52 133.89 193.98 C 135.02 190.59 136.62 187.38 138.22 184.18 L 139.34 184.24 C 145.55 184.58 151.78 184.54 157.99 184.50 C 319.66 184.50 481.33 184.50 643.00 184.50 C 744.70 184.58 846.41 184.34 948.10 184.62 C 947.78 183.38 947.47 182.14 947.20 180.90 Z" />
<path fill="#ff8c00" opacity="1.00" d=" M 986.89 223.20 C 987.78 223.26 988.67 223.41 989.55 223.65 C 997.89 231.94 1002.15 243.16 1007.94 253.19 C 1010.69 256.71 1013.16 260.45 1014.35 264.82 C 1015.35 269.01 1019.30 271.51 1020.54 275.57 C 1023.11 282.45 1027.61 288.45 1029.72 295.51 C 1031.34 300.57 1034.58 304.91 1036.21 309.97 C 1037.54 314.32 1039.68 318.36 1041.74 322.40 C 1042.85 324.54 1042.21 327.06 1042.71 329.35 C 1044.52 332.59 1047.30 335.41 1047.83 339.24 C 1048.48 343.59 1051.09 347.32 1051.72 351.68 C 1053.85 358.60 1055.12 365.76 1057.56 372.59 C 1061.58 384.18 1063.57 396.33 1067.15 408.04 C 1068.38 411.88 1068.58 415.93 1069.44 419.86 C 1070.29 424.58 1072.15 429.14 1072.41 433.96 C 1071.98 442.13 1075.89 449.83 1075.42 458.05 C 1075.08 461.44 1076.75 464.58 1076.67 467.95 C 1076.57 471.26 1077.04 474.57 1078.09 477.72 C 1080.88 484.85 1078.21 492.67 1080.28 499.97 C 1080.59 512.98 1080.29 526.01 1080.43 539.03 C 1080.56 541.59 1079.99 544.08 1079.37 546.55 C 1068.03 546.63 1056.67 546.27 1045.35 546.74 C 1035.27 547.89 1025.11 547.04 1015.00 547.30 C 929.33 547.29 843.67 547.30 758.00 547.29 C 748.91 547.03 739.76 547.95 730.73 546.65 C 728.85 546.16 726.97 545.65 725.03 545.72 C 716.96 545.68 708.90 545.83 700.83 545.64 C 700.26 536.42 700.71 527.18 700.55 517.95 C 700.26 514.15 702.73 510.84 702.57 507.06 C 702.74 502.64 702.08 498.14 703.15 493.80 C 704.07 489.70 702.88 485.37 704.30 481.36 C 705.88 476.81 705.44 471.88 707.15 467.35 C 708.05 455.01 711.33 443.02 713.50 430.87 C 714.27 423.36 717.74 416.45 718.73 408.98 C 719.60 405.51 720.08 401.40 722.97 398.94 C 727.19 396.20 732.41 395.90 736.94 393.83 C 745.63 390.02 755.11 388.48 763.80 384.67 C 768.33 382.77 773.10 381.48 777.56 379.38 C 781.96 377.18 787.02 376.76 791.29 374.24 C 797.53 370.75 804.55 369.05 810.90 365.79 C 813.91 364.31 817.07 363.17 820.23 362.05 C 825.24 360.31 829.38 356.88 834.15 354.64 C 849.67 346.96 865.87 340.22 879.90 329.94 C 890.73 324.89 899.97 317.23 910.23 311.23 C 914.64 308.00 918.44 303.98 923.15 301.14 C 929.97 296.72 934.51 289.65 941.41 285.34 C 946.00 282.05 950.05 278.00 953.36 273.41 C 957.53 267.02 963.76 262.32 967.99 255.96 C 970.81 251.48 974.76 247.77 977.04 242.93 C 978.53 239.63 981.81 237.37 982.73 233.78 C 983.73 230.11 985.62 226.78 986.89 223.20 M 811.19 367.15 C 804.05 370.41 796.63 373.01 789.57 376.45 C 775.83 381.27 762.57 387.46 748.48 391.25 C 742.15 393.09 736.14 395.88 729.77 397.64 C 726.97 398.56 723.55 399.34 722.22 402.31 C 719.90 407.30 719.64 412.92 717.99 418.13 C 714.79 428.07 713.56 438.49 711.31 448.66 C 708.97 458.55 708.60 468.79 706.18 478.67 C 703.42 490.29 705.16 502.35 702.87 514.03 C 702.03 524.09 702.63 534.24 702.65 544.33 C 709.76 544.51 716.88 544.55 724.00 544.36 C 730.79 544.04 737.17 547.40 744.00 546.52 C 838.33 546.37 932.67 546.52 1027.00 546.45 C 1032.46 546.34 1038.07 547.20 1043.38 545.47 C 1048.43 543.85 1053.78 544.49 1059.00 544.47 C 1065.44 544.49 1071.89 544.51 1078.34 544.33 C 1078.66 531.22 1078.37 518.11 1078.52 505.00 C 1078.03 497.99 1077.38 490.99 1077.34 483.96 C 1075.84 476.58 1075.40 469.04 1073.88 461.67 C 1073.00 456.28 1073.96 450.73 1072.61 445.38 C 1071.09 439.13 1071.36 432.60 1069.72 426.38 C 1067.80 419.10 1067.12 411.54 1064.78 404.36 C 1061.42 391.46 1058.55 378.42 1054.01 365.86 C 1041.68 365.35 1029.33 365.75 1017.00 365.63 C 950.64 365.60 884.28 365.69 817.93 365.58 C 815.59 365.62 813.32 366.24 811.19 367.15 Z" />
<path fill="#ff8c00" opacity="1.00" d=" M 99.12 252.87 C 100.02 251.01 102.20 251.51 103.89 251.38 C 104.63 256.31 107.52 260.49 111.36 263.56 C 113.70 267.39 115.98 271.31 119.12 274.56 C 120.99 277.10 123.14 279.40 125.39 281.59 C 129.05 285.04 130.62 290.25 134.78 293.23 C 138.42 295.88 142.45 298.10 145.44 301.55 C 148.09 304.67 151.15 307.40 154.45 309.83 C 156.81 312.04 159.05 314.57 162.34 315.33 C 164.18 317.33 166.12 319.24 168.33 320.83 C 170.00 322.20 171.82 323.39 173.82 324.24 C 176.56 326.59 179.36 328.94 182.78 330.28 C 184.76 332.09 186.93 333.77 189.70 334.01 C 191.50 335.75 193.43 337.41 195.84 338.25 C 199.84 342.64 205.63 344.44 210.34 347.87 C 231.64 358.44 252.78 369.45 275.09 377.79 C 283.04 381.39 291.34 384.11 299.44 387.38 C 307.80 390.31 316.47 392.44 324.51 396.24 C 330.62 398.40 336.94 399.93 343.13 401.84 C 347.72 403.88 348.51 409.67 349.41 414.06 C 348.95 421.00 351.85 427.41 353.32 434.05 C 353.54 439.60 354.66 445.03 354.76 450.58 C 356.25 454.49 356.66 458.57 356.66 462.73 C 357.81 467.07 357.45 471.57 357.50 476.01 C 357.40 478.81 358.77 481.34 359.35 484.03 C 359.83 488.91 359.16 493.83 359.66 498.71 C 360.03 500.77 360.57 502.83 360.51 504.95 C 360.51 516.98 360.46 529.02 360.52 541.05 C 360.46 542.94 360.78 545.13 359.13 546.48 C 338.52 546.55 317.90 546.61 297.29 546.45 C 297.74 546.12 298.62 545.46 299.06 545.14 C 300.97 544.62 302.95 544.43 304.92 544.39 C 322.74 544.45 340.56 544.61 358.37 544.33 C 358.70 527.56 358.45 510.78 358.44 494.01 C 358.53 485.92 356.24 478.05 356.11 469.97 C 355.93 460.38 353.45 451.05 352.70 441.52 C 352.12 432.58 348.54 424.18 347.95 415.24 C 347.28 411.04 347.16 405.35 342.58 403.43 C 336.65 400.90 330.13 400.10 324.19 397.56 C 317.19 394.65 310.01 392.20 302.75 390.04 C 284.18 383.39 265.87 375.98 247.86 367.95 C 240.68 364.72 232.64 365.65 225.00 365.63 C 171.00 365.63 117.00 365.64 63.00 365.62 C 57.76 365.70 52.43 365.05 47.26 366.15 C 45.23 368.58 44.42 371.72 43.37 374.64 C 38.31 389.88 32.95 405.07 29.54 420.79 C 27.87 427.98 25.59 435.02 23.92 442.22 C 21.45 454.41 19.29 466.66 17.75 479.01 C 16.09 486.76 17.04 494.76 15.50 502.53 C 14.22 509.36 14.67 516.38 13.23 523.19 C 11.76 530.15 12.66 537.28 12.68 544.33 C 18.14 544.58 23.59 544.32 29.05 544.40 C 34.76 544.49 40.28 546.22 45.97 546.51 C 124.31 546.38 202.66 546.50 281.00 546.45 C 286.15 546.35 291.32 546.28 296.43 547.06 L 297.53 547.28 C 216.02 547.32 134.51 547.28 53.00 547.30 C 47.25 547.27 41.46 547.62 35.77 546.65 C 27.69 544.68 19.24 546.27 11.00 545.64 C 10.21 539.77 10.71 533.83 10.58 527.94 C 10.45 524.16 12.73 520.79 12.59 517.02 C 12.78 512.49 11.95 507.80 13.61 503.46 C 15.24 499.13 14.36 494.44 14.58 489.94 C 14.69 483.48 17.93 477.48 17.58 470.99 C 17.60 465.74 19.28 460.69 20.34 455.60 C 20.84 447.85 23.22 440.39 24.85 432.84 C 27.67 425.19 28.73 417.09 31.17 409.34 C 33.03 400.92 36.34 392.92 38.52 384.59 C 41.65 376.43 44.54 368.17 46.74 359.72 C 49.45 352.25 51.94 344.66 55.66 337.62 C 56.69 335.91 56.37 333.84 56.73 331.96 C 58.46 328.71 61.36 326.18 62.64 322.66 C 65.81 314.32 68.98 305.91 73.31 298.09 C 76.95 292.74 79.65 286.83 82.10 280.86 C 86.81 277.28 86.28 270.14 91.26 266.89 C 91.87 264.94 92.43 262.97 92.94 261.00 C 95.60 258.77 97.17 255.66 99.12 252.87 Z" />
</g>
<g id="#ffed00ff">
<path fill="#ffed00" opacity="1.00" d=" M 47.26 366.15 C 52.43 365.05 57.76 365.70 63.00 365.62 C 117.00 365.64 171.00 365.63 225.00 365.63 C 232.64 365.65 240.68 364.72 247.86 367.95 C 265.87 375.98 284.18 383.39 302.75 390.04 C 310.01 392.20 317.19 394.65 324.19 397.56 C 330.13 400.10 336.65 400.90 342.58 403.43 C 347.16 405.35 347.28 411.04 347.95 415.24 C 348.54 424.18 352.12 432.58 352.70 441.52 C 353.45 451.05 355.93 460.38 356.11 469.97 C 356.24 478.05 358.53 485.92 358.44 494.01 C 358.45 510.78 358.70 527.56 358.37 544.33 C 340.56 544.61 322.74 544.45 304.92 544.39 C 302.95 544.43 300.97 544.62 299.06 545.14 C 298.62 545.46 297.74 546.12 297.29 546.45 L 296.43 547.06 C 291.32 546.28 286.15 546.35 281.00 546.45 C 202.66 546.50 124.31 546.38 45.97 546.51 C 40.28 546.22 34.76 544.49 29.05 544.40 C 23.59 544.32 18.14 544.58 12.68 544.33 C 12.66 537.28 11.76 530.15 13.23 523.19 C 14.67 516.38 14.22 509.36 15.50 502.53 C 17.04 494.76 16.09 486.76 17.75 479.01 C 19.29 466.66 21.45 454.41 23.92 442.22 C 25.59 435.02 27.87 427.98 29.54 420.79 C 32.95 405.07 38.31 389.88 43.37 374.64 C 44.42 371.72 45.23 368.58 47.26 366.15 Z" />
<path fill="#ffed00" opacity="1.00" d=" M 384.80 367.59 C 389.99 364.35 396.25 365.79 402.00 365.63 C 491.33 365.63 580.67 365.63 670.00 365.63 C 676.87 365.60 683.77 365.35 690.61 366.21 C 683.60 370.46 675.25 370.62 667.65 373.18 C 659.08 375.02 650.44 376.59 642.08 379.25 C 628.37 381.38 614.69 383.80 600.98 386.00 C 589.83 387.08 578.71 388.45 567.52 388.92 C 557.04 389.96 546.51 389.31 536.00 389.50 C 523.00 389.99 510.09 387.83 497.09 388.49 C 490.76 387.56 484.29 388.06 478.02 386.71 C 472.39 387.45 467.38 384.37 461.81 384.32 C 457.63 383.05 453.13 384.45 449.04 382.84 C 444.50 381.26 439.53 381.70 435.10 379.73 C 432.21 378.50 428.98 378.95 426.08 377.83 C 422.20 376.29 417.95 376.73 413.94 375.80 C 409.79 375.49 406.09 373.29 401.96 372.85 C 398.08 372.42 394.46 370.71 390.54 370.48 C 388.28 370.46 386.36 369.10 384.80 367.59 Z" />
<path fill="#ffed00" opacity="1.00" d=" M 811.19 367.15 C 813.32 366.24 815.59 365.62 817.93 365.58 C 884.28 365.69 950.64 365.60 1017.00 365.63 C 1029.33 365.75 1041.68 365.35 1054.01 365.86 C 1058.55 378.42 1061.42 391.46 1064.78 404.36 C 1067.12 411.54 1067.80 419.10 1069.72 426.38 C 1071.36 432.60 1071.09 439.13 1072.61 445.38 C 1073.96 450.73 1073.00 456.28 1073.88 461.67 C 1075.40 469.04 1075.84 476.58 1077.34 483.96 C 1077.38 490.99 1078.03 497.99 1078.52 505.00 C 1078.37 518.11 1078.66 531.22 1078.34 544.33 C 1071.89 544.51 1065.44 544.49 1059.00 544.47 C 1053.78 544.49 1048.43 543.85 1043.38 545.47 C 1038.07 547.20 1032.46 546.34 1027.00 546.45 C 932.67 546.52 838.33 546.37 744.00 546.52 C 737.17 547.40 730.79 544.04 724.00 544.36 C 716.88 544.55 709.76 544.51 702.65 544.33 C 702.63 534.24 702.03 524.09 702.87 514.03 C 705.16 502.35 703.42 490.29 706.18 478.67 C 708.60 468.79 708.97 458.55 711.31 448.66 C 713.56 438.49 714.79 428.07 717.99 418.13 C 719.64 412.92 719.90 407.30 722.22 402.31 C 723.55 399.34 726.97 398.56 729.77 397.64 C 736.14 395.88 742.15 393.09 748.48 391.25 C 762.57 387.46 775.83 381.27 789.57 376.45 C 796.63 373.01 804.05 370.41 811.19 367.15 Z" />
<path fill="#ffed00" opacity="1.00" d=" M 402.33 407.71 C 402.68 407.37 403.39 406.71 403.74 406.37 C 408.98 407.81 414.07 410.01 419.55 410.45 C 425.95 410.89 432.01 413.43 438.45 413.57 C 444.44 414.54 450.30 416.49 456.43 416.52 C 461.42 416.43 466.01 418.89 471.01 418.76 C 476.29 420.01 481.84 418.95 487.02 420.73 C 491.70 422.55 496.86 420.73 501.58 422.36 C 509.98 425.21 519.05 422.29 527.60 424.40 C 537.05 424.90 546.53 424.47 556.00 424.61 C 561.67 424.44 567.42 425.13 573.02 423.93 C 579.19 422.86 585.67 424.73 591.68 422.54 C 596.29 420.76 601.37 422.48 605.98 420.72 C 609.66 419.39 613.57 419.65 617.42 419.50 C 623.88 419.31 629.94 416.44 636.43 416.49 C 642.00 416.47 647.20 414.14 652.70 413.61 C 659.14 413.51 665.14 410.40 671.66 411.39 C 672.40 418.40 669.02 424.81 668.60 431.71 C 668.46 438.70 665.39 445.26 665.45 452.29 C 665.65 456.67 663.12 460.62 663.39 465.00 C 663.81 470.05 661.97 474.91 662.39 479.96 C 662.74 483.80 661.87 487.55 660.72 491.19 C 659.36 500.40 662.11 510.10 658.68 519.01 C 657.90 528.05 658.82 537.19 658.22 546.26 C 650.25 546.89 642.24 546.12 634.27 546.66 C 631.87 546.88 629.48 547.26 627.07 547.30 C 573.71 547.28 520.36 547.30 467.00 547.29 C 460.21 547.24 453.32 547.79 446.65 546.21 C 444.14 545.54 441.53 545.64 438.97 545.65 C 430.50 545.70 422.03 545.64 413.56 545.67 C 413.15 543.47 412.54 541.29 412.62 539.04 C 412.64 527.00 412.65 514.96 412.63 502.93 C 412.66 498.86 410.46 495.13 410.63 491.05 C 410.79 480.68 410.35 470.31 410.29 459.94 C 408.21 451.78 407.28 443.34 407.36 434.91 C 407.33 431.15 405.46 427.70 405.28 423.95 C 404.75 418.45 402.37 413.27 402.33 407.71 Z" />
</g>
<g id="#008026ff">
<path fill="#008026" opacity="1.00" d=" M 446.65 546.21 C 453.32 547.79 460.21 547.24 467.00 547.29 C 520.36 547.30 573.71 547.28 627.07 547.30 C 629.48 547.26 631.87 546.88 634.27 546.66 C 635.30 547.76 636.56 548.30 638.05 548.30 C 645.24 548.42 652.42 548.25 659.61 548.37 C 660.01 550.90 660.33 553.45 660.46 556.03 C 660.62 560.08 662.28 563.89 662.41 567.95 C 662.54 572.65 662.31 577.35 662.39 582.06 C 662.21 586.50 664.69 590.55 664.42 595.01 C 664.09 600.72 665.46 606.32 665.46 612.02 C 665.54 615.76 667.35 619.22 667.38 622.98 C 667.42 627.41 667.71 631.86 668.95 636.15 C 670.75 642.16 670.50 648.55 672.30 654.57 C 673.58 659.00 673.26 663.78 675.07 668.07 C 676.65 671.89 678.82 675.68 678.63 679.96 C 678.68 687.49 681.96 694.33 684.35 701.29 C 685.47 710.41 689.53 718.75 691.85 727.56 C 685.64 728.80 679.28 728.40 673.00 728.41 C 583.00 728.40 493.00 728.41 403.00 728.40 C 396.33 728.39 389.62 728.69 382.98 727.83 C 382.81 728.23 382.47 729.03 382.30 729.43 C 382.01 724.89 384.52 720.87 385.19 716.49 C 386.85 704.16 392.13 692.68 394.28 680.46 C 394.82 675.97 395.92 671.58 397.02 667.21 C 397.99 663.75 397.26 660.06 398.45 656.66 C 400.71 649.83 399.89 642.45 402.10 635.63 C 402.75 632.47 402.62 629.18 403.70 626.10 C 405.08 622.29 404.32 618.17 405.21 614.27 C 406.22 609.25 404.81 603.97 406.70 599.11 C 408.46 594.25 407.22 589.01 407.81 584.00 C 409.32 576.07 408.46 567.96 408.63 559.95 C 408.48 555.72 410.43 551.85 411.02 547.73 C 421.35 547.26 431.69 547.65 442.02 547.53 C 443.68 547.65 445.21 546.96 446.65 546.21 Z" />
<path fill="#008026" opacity="1.00" d=" M 8.68 547.67 C 17.69 546.96 26.89 548.53 35.77 546.65 C 41.46 547.62 47.25 547.27 53.00 547.30 C 134.51 547.28 216.02 547.32 297.53 547.28 C 303.91 548.89 310.50 548.21 317.00 548.32 C 332.16 548.40 347.31 548.17 362.46 548.45 C 362.27 559.61 362.68 570.79 362.28 581.95 C 360.46 590.33 362.86 599.13 359.71 607.29 C 359.59 614.55 358.60 621.75 358.25 629.01 C 355.69 637.57 356.22 646.67 353.80 655.28 C 351.77 663.71 351.25 672.39 349.09 680.79 C 346.77 691.75 344.66 702.76 341.83 713.60 C 340.99 718.84 338.72 723.65 336.55 728.44 C 281.37 728.36 226.18 728.43 171.00 728.40 C 127.08 728.50 83.16 728.22 39.24 728.55 C 36.95 719.62 32.77 711.30 30.86 702.27 C 28.71 695.21 27.54 687.85 24.56 681.06 C 22.37 676.05 22.29 670.49 20.77 665.29 C 19.30 660.29 19.60 654.97 17.97 650.01 C 16.12 643.99 16.35 637.59 14.54 631.56 C 12.93 626.16 14.02 620.45 12.89 614.97 C 12.22 610.30 10.31 605.79 10.58 601.00 C 10.44 597.53 10.91 593.97 10.29 590.56 C 8.18 586.71 8.66 582.21 8.64 577.99 C 8.66 567.89 8.64 557.78 8.68 547.67 Z" />
<path fill="#008026" opacity="1.00" d=" M 698.83 547.83 C 709.42 546.65 720.25 548.72 730.73 546.65 C 739.76 547.95 748.91 547.03 758.00 547.29 C 843.67 547.30 929.33 547.29 1015.00 547.30 C 1025.11 547.04 1035.27 547.89 1045.35 546.74 C 1046.57 548.00 1048.26 548.43 1050.00 548.34 C 1060.53 548.34 1071.07 548.30 1081.60 548.34 C 1081.71 553.90 1081.52 559.47 1081.73 565.03 C 1082.87 571.58 1082.62 578.31 1081.70 584.88 C 1081.28 589.10 1081.65 593.42 1080.40 597.54 C 1078.79 602.80 1079.73 608.38 1078.66 613.74 C 1078.56 620.45 1075.73 626.73 1075.48 633.41 C 1075.31 638.98 1073.10 644.20 1072.61 649.73 C 1072.09 656.92 1068.96 663.55 1067.57 670.57 C 1066.13 678.13 1063.09 685.28 1061.81 692.87 C 1061.18 697.26 1058.45 700.95 1057.51 705.24 C 1056.29 713.14 1052.38 720.23 1050.40 727.93 C 1050.07 728.09 1049.40 728.42 1049.07 728.58 C 998.05 728.17 947.02 728.52 896.00 728.40 C 841.49 728.33 786.98 728.56 732.47 728.29 C 728.94 724.05 726.73 718.81 725.38 713.50 C 722.70 703.81 719.28 694.33 717.12 684.50 C 713.72 675.59 712.65 666.04 710.14 656.87 C 709.33 651.18 707.99 645.60 706.74 640.00 C 706.86 631.73 703.97 623.90 703.00 615.77 C 700.74 609.05 702.13 601.89 700.68 595.03 C 699.83 590.14 702.20 584.30 698.80 580.14 C 698.56 569.38 698.45 558.58 698.83 547.83 Z" />
</g>
<g id="#004dffff">
<path fill="#004dff" opacity="1.00" d=" M 382.98 727.83 C 389.62 728.69 396.33 728.39 403.00 728.40 C 493.00 728.41 583.00 728.40 673.00 728.41 C 679.28 728.40 685.64 728.80 691.85 727.56 L 692.54 727.45 C 692.54 727.87 692.55 728.72 692.55 729.15 C 692.40 733.18 694.04 736.93 695.68 740.53 C 698.51 746.67 700.04 753.31 702.89 759.44 C 706.65 767.13 708.52 775.65 713.01 783.01 C 717.52 790.52 719.52 799.15 723.38 806.97 C 726.27 812.58 730.51 817.43 732.78 823.38 C 735.67 830.75 740.54 837.06 744.27 843.99 C 745.86 846.93 747.76 849.69 749.73 852.39 C 753.90 858.06 756.23 864.88 760.75 870.31 C 766.35 877.12 771.07 884.58 776.48 891.54 C 780.83 897.58 786.09 902.92 790.08 909.23 C 779.06 909.87 768.02 909.40 757.00 909.54 C 614.00 909.53 471.00 909.55 328.00 909.53 C 318.81 909.64 309.62 909.48 300.44 909.34 C 303.07 905.09 306.06 901.08 309.11 897.13 C 311.59 893.20 313.71 889.06 316.24 885.17 C 321.35 877.83 325.07 869.68 329.35 861.87 C 331.75 857.53 335.07 853.68 336.76 848.96 C 339.14 842.88 341.69 836.85 345.14 831.28 C 348.45 824.13 351.46 816.85 354.46 809.57 C 355.75 806.24 358.40 803.46 358.64 799.76 C 360.29 793.80 363.81 788.52 365.41 782.53 C 368.45 771.02 373.44 760.14 376.68 748.69 C 377.91 744.49 380.62 740.63 380.43 736.11 C 380.26 733.71 381.38 731.56 382.30 729.43 C 382.47 729.03 382.81 728.23 382.98 727.83 Z" />
<path fill="#004dff" opacity="1.00" d=" M 39.24 728.55 C 83.16 728.22 127.08 728.50 171.00 728.40 C 226.18 728.43 281.37 728.36 336.55 728.44 C 336.59 730.81 336.36 733.20 335.43 735.42 C 334.22 738.10 334.67 741.08 334.29 743.92 C 331.26 753.79 326.93 763.21 324.36 773.23 C 320.06 786.23 313.82 798.47 309.38 811.43 C 302.95 823.42 298.60 836.49 291.04 847.88 C 288.02 852.66 286.20 858.09 282.99 862.77 C 280.60 867.60 276.61 871.40 274.34 876.31 C 272.29 880.39 269.66 884.16 266.69 887.64 C 261.05 895.12 256.60 903.62 249.28 909.69 L 248.48 909.67 C 216.17 909.45 183.86 909.47 151.55 909.66 L 150.73 909.68 C 140.30 899.29 129.55 889.15 120.30 877.68 C 116.50 871.88 111.37 867.09 107.70 861.21 C 102.62 853.36 96.81 846.01 91.91 838.03 C 88.70 831.99 84.50 826.55 81.45 820.43 C 76.36 811.14 70.12 802.45 66.21 792.55 C 61.95 784.66 58.85 776.24 54.62 768.35 C 48.64 755.42 43.64 742.07 39.24 728.55 Z" />
<path fill="#004dff" opacity="1.00" d=" M 731.89 728.32 L 732.47 728.29 C 786.98 728.56 841.49 728.33 896.00 728.40 C 947.02 728.52 998.05 728.17 1049.07 728.58 C 1047.11 736.23 1043.82 743.42 1040.99 750.77 C 1037.72 759.93 1033.58 768.74 1030.02 777.79 C 1027.02 785.27 1023.26 792.42 1019.51 799.54 C 1015.29 806.96 1011.94 814.86 1007.04 821.89 C 1002.40 829.91 998.40 838.32 992.80 845.76 C 981.18 864.00 967.97 881.34 952.30 896.30 C 948.33 900.01 944.92 904.31 940.74 907.78 C 938.91 909.40 936.39 909.60 934.08 909.61 C 907.03 909.47 879.98 909.54 852.93 909.58 C 848.70 909.58 844.28 908.76 840.84 906.16 C 836.88 903.15 833.74 899.26 830.08 895.93 C 824.56 890.95 821.66 883.83 816.29 878.71 C 811.68 874.23 807.97 868.97 803.93 864.00 C 795.68 854.35 788.67 843.73 781.79 833.08 C 776.46 825.29 772.45 816.69 766.97 809.00 C 762.96 803.46 761.51 796.62 758.08 790.77 C 754.70 784.98 752.33 778.67 748.87 772.93 C 745.45 767.12 744.65 760.25 741.64 754.25 C 739.06 749.14 737.60 743.57 735.10 738.43 C 733.55 735.22 732.91 731.70 731.89 728.32 Z" />
</g>
<g id="#750787ff">
<path fill="#750787" opacity="1.00" d=" M 731.51 728.14 L 731.89 728.32 C 732.91 731.70 733.55 735.22 735.10 738.43 C 737.60 743.57 739.06 749.14 741.64 754.25 C 744.65 760.25 745.45 767.12 748.87 772.93 C 752.33 778.67 754.70 784.98 758.08 790.77 C 761.51 796.62 762.96 803.46 766.97 809.00 C 772.45 816.69 776.46 825.29 781.79 833.08 C 788.67 843.73 795.68 854.35 803.93 864.00 C 807.97 868.97 811.68 874.23 816.29 878.71 C 821.66 883.83 824.56 890.95 830.08 895.93 C 833.74 899.26 836.88 903.15 840.84 906.16 C 844.28 908.76 848.70 909.58 852.93 909.58 C 879.98 909.54 907.03 909.47 934.08 909.61 C 936.39 909.60 938.91 909.40 940.74 907.78 C 944.92 904.31 948.33 900.01 952.30 896.30 C 967.97 881.34 981.18 864.00 992.80 845.76 C 998.40 838.32 1002.40 829.91 1007.04 821.89 C 1011.94 814.86 1015.29 806.96 1019.51 799.54 C 1023.26 792.42 1027.02 785.27 1030.02 777.79 C 1033.58 768.74 1037.72 759.93 1040.99 750.77 C 1043.82 743.42 1047.11 736.23 1049.07 728.58 C 1049.40 728.42 1050.07 728.09 1050.40 727.93 C 1048.67 732.36 1048.01 737.14 1045.98 741.47 C 1042.36 749.38 1040.00 757.79 1036.28 765.65 C 1034.11 771.12 1031.23 776.28 1029.00 781.73 C 1027.45 786.69 1024.04 790.76 1022.18 795.60 C 1020.34 800.46 1016.90 804.48 1014.85 809.25 C 1013.40 812.54 1012.03 815.93 1009.76 818.77 C 1004.86 824.98 1002.38 832.66 997.91 839.15 C 989.50 851.29 981.89 864.05 972.29 875.33 C 968.04 879.77 964.55 884.86 960.23 889.23 C 951.87 897.54 943.51 905.85 935.23 914.24 C 931.34 917.71 926.80 920.37 923.09 924.06 C 919.23 927.91 913.73 929.11 909.32 932.13 C 902.98 936.49 894.99 938.62 887.40 936.98 C 882.75 935.28 878.71 932.34 874.22 930.32 C 868.44 927.79 863.38 923.97 858.03 920.68 C 854.63 918.60 852.00 915.57 849.43 912.59 C 846.31 908.76 840.99 907.93 837.68 904.33 C 834.06 900.59 830.43 896.88 826.65 893.32 C 823.55 890.52 822.61 886.20 819.73 883.26 C 813.92 877.36 808.45 871.13 803.64 864.39 C 797.79 858.14 793.18 850.92 788.34 843.91 C 784.07 838.38 781.01 832.07 776.83 826.49 C 773.31 819.78 769.47 813.24 765.10 807.05 C 761.89 802.83 761.39 797.26 758.19 793.04 C 754.93 788.65 752.88 783.59 750.97 778.52 C 749.40 774.06 745.97 770.50 744.69 765.92 C 743.23 759.28 739.43 753.53 737.40 747.08 C 735.32 740.84 731.37 734.86 731.51 728.14 Z" />
<path fill="#750787" opacity="1.00" d=" M 692.55 729.15 C 694.14 733.98 694.98 739.39 699.06 742.91 C 698.88 747.01 699.83 750.89 702.07 754.34 C 704.09 760.68 707.64 766.41 709.40 772.84 C 710.81 778.06 713.90 782.56 716.18 787.41 C 718.96 793.03 721.34 798.83 723.58 804.69 C 725.26 809.40 728.77 813.08 731.12 817.44 C 733.86 823.07 735.93 829.09 739.61 834.23 C 742.58 838.39 744.47 843.19 747.38 847.40 C 749.94 851.39 753.27 854.91 755.23 859.29 C 757.98 866.14 763.29 871.47 767.56 877.37 C 774.02 886.82 780.80 896.08 788.26 904.76 C 791.10 908.56 793.60 912.65 797.10 915.91 C 800.40 918.93 803.69 922.05 806.16 925.83 C 808.77 929.79 812.21 933.10 815.61 936.39 C 819.63 940.43 824.85 943.04 828.64 947.36 C 832.30 951.46 837.15 954.15 841.30 957.69 C 845.76 961.62 850.73 964.90 855.35 968.64 C 859.84 972.15 865.02 974.56 870.19 976.89 C 872.73 977.94 875.29 979.86 875.51 982.84 C 873.61 986.19 870.11 988.04 867.04 990.12 C 861.12 994.32 854.24 996.99 848.68 1001.72 C 845.12 1004.80 840.85 1006.80 836.55 1008.61 C 832.02 1010.45 829.02 1014.58 824.67 1016.70 C 820.66 1018.91 816.26 1020.27 812.22 1022.41 C 806.54 1025.66 800.73 1028.67 795.11 1032.03 C 783.95 1035.80 773.48 1041.29 762.63 1045.83 C 760.50 1046.71 758.17 1046.80 755.94 1047.24 C 750.76 1051.51 743.72 1051.87 737.96 1055.05 C 735.28 1056.78 732.07 1056.67 729.04 1057.13 C 727.15 1058.85 724.84 1059.91 722.31 1060.21 C 717.38 1060.83 712.87 1063.03 707.99 1063.84 C 704.69 1064.41 701.84 1066.27 698.70 1067.30 C 687.07 1069.53 675.72 1073.05 664.01 1074.90 C 655.01 1076.53 646.22 1079.59 637.00 1079.65 C 633.21 1079.45 629.86 1081.80 626.08 1081.61 C 621.35 1081.54 616.76 1083.04 612.02 1082.65 C 608.82 1082.31 605.87 1083.59 602.87 1084.41 C 597.51 1085.10 592.00 1084.91 586.95 1082.88 C 579.25 1083.93 571.50 1084.52 563.81 1085.63 C 559.31 1085.65 554.72 1086.10 550.30 1085.21 C 543.44 1082.78 536.08 1083.89 528.98 1083.78 C 528.76 1085.40 528.56 1087.01 528.33 1088.66 C 526.94 1087.49 525.26 1086.24 525.04 1084.32 C 521.40 1085.00 517.72 1085.57 514.00 1085.42 C 508.67 1085.18 503.08 1086.24 498.06 1083.96 C 493.57 1081.89 488.57 1083.14 483.88 1082.13 C 481.59 1081.64 479.25 1081.65 476.94 1081.58 C 473.51 1081.54 470.47 1079.34 467.00 1079.67 C 462.28 1080.06 457.72 1078.75 453.23 1077.51 C 441.62 1075.46 429.93 1073.66 418.55 1070.51 C 413.08 1068.75 407.18 1068.62 401.96 1066.09 C 398.42 1064.34 394.37 1064.55 390.73 1063.17 C 385.43 1060.90 379.56 1060.49 374.32 1058.03 C 369.75 1057.01 365.56 1055.01 361.38 1052.98 C 348.85 1049.32 337.09 1043.54 324.85 1039.08 C 320.15 1036.86 315.83 1033.79 310.75 1032.47 C 306.35 1031.23 302.68 1028.38 298.57 1026.51 C 294.06 1024.49 290.22 1021.23 285.56 1019.50 C 277.75 1016.47 271.66 1010.38 263.97 1007.11 C 259.47 1005.22 255.65 1002.15 251.56 999.57 C 247.19 996.99 242.96 994.20 238.98 991.06 C 235.54 988.31 230.54 987.19 228.53 982.92 C 227.37 980.02 230.68 978.75 232.59 977.51 C 240.16 973.34 246.54 967.46 253.60 962.54 C 257.97 959.31 261.38 955.03 265.30 951.30 C 269.37 947.04 274.05 943.33 277.40 938.43 C 281.93 931.70 288.31 926.48 292.67 919.63 C 295.37 916.29 297.13 912.10 300.44 909.34 C 309.62 909.48 318.81 909.64 328.00 909.53 C 471.00 909.55 614.00 909.53 757.00 909.54 C 768.02 909.40 779.06 909.87 790.08 909.23 C 786.09 902.92 780.83 897.58 776.48 891.54 C 771.07 884.58 766.35 877.12 760.75 870.31 C 756.23 864.88 753.90 858.06 749.73 852.39 C 747.76 849.69 745.86 846.93 744.27 843.99 C 740.54 837.06 735.67 830.75 732.78 823.38 C 730.51 817.43 726.27 812.58 723.38 806.97 C 719.52 799.15 717.52 790.52 713.01 783.01 C 708.52 775.65 706.65 767.13 702.89 759.44 C 700.04 753.31 698.51 746.67 695.68 740.53 C 694.04 736.93 692.40 733.18 692.55 729.15 Z" />
<path fill="#750787" opacity="1.00" d=" M 151.55 909.66 C 183.86 909.47 216.17 909.45 248.48 909.67 C 244.64 915.02 239.52 919.25 234.99 923.99 C 231.41 927.41 228.15 931.16 224.44 934.45 C 218.48 939.00 211.41 942.09 204.02 943.35 C 199.24 943.99 195.12 941.03 191.08 938.97 C 186.29 936.12 181.04 934.10 176.36 931.05 C 167.50 924.69 157.97 918.70 151.55 909.66 Z" />
</g>
</svg>
