<?xml version="1.0" encoding="UTF-8" ?>
<!DOCTYPE svg PUBLIC "-//W3C//DTD SVG 1.1//EN" "http://www.w3.org/Graphics/SVG/1.1/DTD/svg11.dtd">
<svg width="300pt" height="300pt" viewBox="0 0 300 300" version="1.1" xmlns="http://www.w3.org/2000/svg">
<g id="#0b0b0bff">
<path fill="#0b0b0b" opacity="1.00" d=" M 0.00 0.00 L 0.06 0.00 C 0.05 0.02 0.02 0.05 0.00 0.06 L 0.00 0.00 Z" />
<path fill="#0b0b0b" opacity="1.00" d=" M 101.62 52.51 C 110.14 50.12 118.75 48.02 127.34 45.90 C 158.02 47.24 188.73 48.71 219.42 49.75 C 219.64 51.17 219.78 52.61 219.78 54.05 C 219.70 70.00 219.81 85.96 219.73 101.91 C 219.92 103.25 218.50 103.85 217.71 104.62 C 212.70 108.32 208.06 112.53 202.88 115.97 C 178.79 113.57 154.80 109.99 130.70 107.63 C 130.78 122.07 130.47 136.52 130.84 150.96 C 131.57 160.74 131.14 170.58 132.06 180.35 C 159.70 184.53 187.28 189.18 214.93 193.36 C 215.91 193.77 218.28 193.37 217.97 195.05 C 218.07 208.68 217.96 222.32 218.03 235.95 C 218.30 238.37 216.64 240.30 215.55 242.29 C 211.25 249.80 206.94 257.31 202.66 264.82 C 201.94 266.86 199.67 265.69 198.19 265.50 C 168.40 258.72 138.46 252.60 108.53 246.47 C 107.68 231.13 107.69 215.74 106.78 200.40 C 93.87 197.92 80.93 195.65 68.00 193.34 C 66.99 193.22 65.48 192.69 65.70 191.38 C 64.88 174.57 64.29 157.75 63.38 140.94 C 63.37 139.77 63.01 138.67 62.63 137.59 C 63.09 124.97 61.24 112.31 61.19 99.66 C 69.92 96.29 78.46 92.42 87.24 89.15 C 92.40 88.92 97.56 89.79 102.73 89.85 C 102.42 77.40 102.03 64.96 101.62 52.51 M 108.43 52.37 C 120.60 53.28 132.80 53.88 144.99 54.58 C 151.41 55.58 156.81 51.13 162.69 49.32 C 151.12 48.75 139.55 48.15 127.97 47.80 C 121.38 48.92 115.01 51.16 108.43 52.37 M 154.22 54.77 C 168.78 55.80 183.40 55.83 197.98 56.61 C 204.19 57.51 209.42 53.41 215.04 51.53 C 199.36 50.85 183.67 50.14 167.99 49.58 C 163.17 50.50 158.89 53.26 154.22 54.77 M 203.34 58.27 C 203.38 76.63 203.30 94.99 203.38 113.35 C 208.13 109.42 213.27 105.88 217.85 101.80 C 218.06 85.23 218.01 68.63 217.87 52.05 C 212.99 54.05 208.19 56.21 203.34 58.27 M 103.47 54.14 C 103.81 70.49 104.88 86.82 104.96 103.16 C 119.60 104.55 134.23 106.10 148.85 107.70 C 148.77 90.67 148.79 73.64 148.84 56.61 C 133.72 55.83 118.60 54.81 103.47 54.14 M 150.68 56.72 C 150.60 73.82 150.62 90.93 150.67 108.04 C 167.63 109.76 184.49 112.29 201.45 114.00 C 201.62 95.52 201.53 77.02 201.50 58.53 C 184.56 57.84 167.62 57.39 150.68 56.72 M 66.19 99.95 C 78.51 100.70 90.77 102.16 103.10 102.81 C 103.07 99.12 103.07 95.43 103.08 91.74 C 98.05 91.56 93.02 90.96 88.00 90.96 C 80.63 93.69 73.33 96.66 66.19 99.95 M 63.08 101.43 C 63.28 112.26 64.55 123.05 64.56 133.88 C 65.25 137.96 65.12 142.11 65.43 146.22 C 78.53 148.34 91.69 150.13 104.83 152.01 C 104.28 136.26 103.63 120.49 102.65 104.75 C 89.45 103.68 76.26 102.57 63.08 101.43 M 104.69 105.08 C 105.42 119.36 105.94 133.65 106.59 147.93 C 106.83 148.71 106.20 151.49 107.76 150.78 C 114.93 146.70 121.75 142.00 128.86 137.79 C 128.94 127.66 129.01 117.54 128.83 107.41 C 120.78 106.70 112.75 105.67 104.69 105.08 M 106.75 153.92 C 107.71 168.43 107.81 183.01 108.84 197.51 C 115.25 192.35 121.60 187.11 128.09 182.05 C 129.03 181.27 130.24 180.39 129.95 178.98 C 129.69 166.09 128.90 153.21 128.98 140.33 C 121.25 144.25 114.02 149.20 106.75 153.92 M 65.61 148.23 C 66.20 162.59 66.89 176.96 67.57 191.32 C 80.64 193.63 93.67 196.12 106.74 198.44 C 106.36 183.60 105.54 168.77 105.06 153.94 C 91.89 152.16 78.77 150.09 65.61 148.23 M 129.87 183.10 C 123.26 188.42 116.64 193.73 110.02 199.04 C 124.55 201.91 139.12 204.57 153.66 207.40 C 159.65 201.02 165.97 194.96 171.92 188.54 C 158.96 186.38 145.98 184.35 133.02 182.24 C 131.80 181.96 130.75 182.24 129.87 183.10 M 174.27 188.79 C 168.01 195.04 161.70 201.26 155.76 207.81 C 170.87 210.73 185.97 213.74 201.11 216.53 C 205.68 209.36 210.66 202.46 215.25 195.30 C 201.59 193.12 187.91 191.10 174.27 188.79 M 202.91 216.98 C 201.66 218.73 202.29 221.01 202.14 223.02 C 202.38 235.91 201.68 248.87 202.49 261.73 C 206.70 253.35 212.26 245.60 216.06 237.06 C 216.22 223.85 216.18 210.62 216.07 197.41 C 211.61 203.88 207.28 210.44 202.91 216.98 M 108.78 200.79 C 109.27 215.52 109.60 230.26 110.24 244.98 C 124.47 247.90 138.74 250.66 152.93 253.76 C 152.81 238.86 153.12 223.95 152.77 209.05 C 138.07 206.49 123.48 203.35 108.78 200.79 M 154.78 209.56 C 154.69 224.40 154.68 239.24 154.78 254.07 C 169.98 257.30 185.12 260.84 200.36 263.90 C 200.26 248.68 200.50 233.46 200.22 218.25 C 185.05 215.52 169.95 212.32 154.78 209.56 Z" />
</g>
<g id="#ffffffff">
</g>
<g id="#dbdbdbff">
<path fill="#dbdbdb" opacity="1.00" d=" M 108.43 52.37 C 115.01 51.16 121.38 48.92 127.97 47.80 C 139.55 48.15 151.12 48.75 162.69 49.32 C 156.81 51.13 151.41 55.58 144.99 54.58 C 132.80 53.88 120.60 53.28 108.43 52.37 Z" />
<path fill="#dbdbdb" opacity="1.00" d=" M 154.22 54.77 C 158.89 53.26 163.17 50.50 167.99 49.58 C 183.67 50.14 199.36 50.85 215.04 51.53 C 209.42 53.41 204.19 57.51 197.98 56.61 C 183.40 55.83 168.78 55.80 154.22 54.77 Z" />
<path fill="#dbdbdb" opacity="1.00" d=" M 66.19 99.95 C 73.33 96.66 80.63 93.69 88.00 90.96 C 93.02 90.96 98.05 91.56 103.08 91.74 C 103.07 95.43 103.07 99.12 103.10 102.81 C 90.77 102.16 78.51 100.70 66.19 99.95 Z" />
<path fill="#dbdbdb" opacity="1.00" d=" M 129.87 183.10 C 130.75 182.24 131.80 181.96 133.02 182.24 C 145.98 184.35 158.96 186.38 171.92 188.54 C 165.97 194.96 159.65 201.02 153.66 207.40 C 139.12 204.57 124.55 201.91 110.02 199.04 C 116.64 193.73 123.26 188.42 129.87 183.10 Z" />
<path fill="#dbdbdb" opacity="1.00" d=" M 174.27 188.79 C 187.91 191.10 201.59 193.12 215.25 195.30 C 210.66 202.46 205.68 209.36 201.11 216.53 C 185.97 213.74 170.87 210.73 155.76 207.81 C 161.70 201.26 168.01 195.04 174.27 188.79 Z" />
</g>
<g id="#959595ff">
<path fill="#959595" opacity="1.00" d=" M 203.34 58.27 C 208.19 56.21 212.99 54.05 217.87 52.05 C 218.01 68.63 218.06 85.23 217.85 101.80 C 213.27 105.88 208.13 109.42 203.38 113.35 C 203.30 94.99 203.38 76.63 203.34 58.27 Z" />
<path fill="#959595" opacity="1.00" d=" M 103.47 54.14 C 118.60 54.81 133.72 55.83 148.84 56.61 C 148.79 73.64 148.77 90.67 148.85 107.70 C 134.23 106.10 119.60 104.55 104.96 103.16 C 104.88 86.82 103.81 70.49 103.47 54.14 Z" />
<path fill="#959595" opacity="1.00" d=" M 150.68 56.72 C 167.62 57.39 184.56 57.84 201.50 58.53 C 201.53 77.02 201.62 95.52 201.45 114.00 C 184.49 112.29 167.63 109.76 150.67 108.04 C 150.62 90.93 150.60 73.82 150.68 56.72 Z" />
<path fill="#959595" opacity="1.00" d=" M 63.08 101.43 C 76.26 102.57 89.45 103.68 102.65 104.75 C 103.63 120.49 104.28 136.26 104.83 152.01 C 91.69 150.13 78.53 148.34 65.43 146.22 C 65.12 142.11 65.25 137.96 64.56 133.88 C 64.55 123.05 63.28 112.26 63.08 101.43 Z" />
<path fill="#959595" opacity="1.00" d=" M 65.61 148.23 C 78.77 150.09 91.89 152.16 105.06 153.94 C 105.54 168.77 106.36 183.60 106.74 198.44 C 93.67 196.12 80.64 193.63 67.57 191.32 C 66.89 176.96 66.20 162.59 65.61 148.23 Z" />
<path fill="#959595" opacity="1.00" d=" M 202.91 216.98 C 207.28 210.44 211.61 203.88 216.07 197.41 C 216.18 210.62 216.22 223.85 216.06 237.06 C 212.26 245.60 206.70 253.35 202.49 261.73 C 201.68 248.87 202.38 235.91 202.14 223.02 C 202.29 221.01 201.66 218.73 202.91 216.98 Z" />
<path fill="#959595" opacity="1.00" d=" M 108.78 200.79 C 123.48 203.35 138.07 206.49 152.77 209.05 C 153.12 223.95 152.81 238.86 152.93 253.76 C 138.74 250.66 124.47 247.90 110.24 244.98 C 109.60 230.26 109.27 215.52 108.78 200.79 Z" />
<path fill="#959595" opacity="1.00" d=" M 154.78 209.56 C 169.95 212.32 185.05 215.52 200.22 218.25 C 200.50 233.46 200.26 248.68 200.36 263.90 C 185.12 260.84 169.98 257.30 154.78 254.07 C 154.68 239.24 154.69 224.40 154.78 209.56 Z" />
</g>
<g id="#6f6f6fff">
<path fill="#6f6f6f" opacity="1.00" d=" M 104.69 105.08 C 112.75 105.67 120.78 106.70 128.83 107.41 C 129.01 117.54 128.94 127.66 128.86 137.79 C 121.75 142.00 114.93 146.70 107.76 150.78 C 106.20 151.49 106.83 148.71 106.59 147.93 C 105.94 133.65 105.42 119.36 104.69 105.08 Z" />
<path fill="#6f6f6f" opacity="1.00" d=" M 106.75 153.92 C 114.02 149.20 121.25 144.25 128.98 140.33 C 128.90 153.21 129.69 166.09 129.95 178.98 C 130.24 180.39 129.03 181.27 128.09 182.05 C 121.60 187.11 115.25 192.35 108.84 197.51 C 107.81 183.01 107.71 168.43 106.75 153.92 Z" />
</g>
</svg>
