<svg width="1979" height="2366" xmlns="http://www.w3.org/2000/svg" xmlns:xlink="http://www.w3.org/1999/xlink" xml:space="preserve" overflow="hidden"><defs><filter id="fx0" x="-10%" y="-10%" width="120%" height="120%" filterUnits="userSpaceOnUse" primitiveUnits="userSpaceOnUse"><feComponentTransfer color-interpolation-filters="sRGB"><feFuncR type="discrete" tableValues="0 0"/><feFuncG type="discrete" tableValues="0 0"/><feFuncB type="discrete" tableValues="0 0"/><feFuncA type="linear" slope="0.4" intercept="0"/></feComponentTransfer><feGaussianBlur stdDeviation="6.11111 6.11111"/></filter><filter id="fx1" x="-10%" y="-10%" width="120%" height="120%" filterUnits="userSpaceOnUse" primitiveUnits="userSpaceOnUse"><feComponentTransfer color-interpolation-filters="sRGB"><feFuncR type="discrete" tableValues="0 0"/><feFuncG type="discrete" tableValues="0 0"/><feFuncB type="discrete" tableValues="0 0"/><feFuncA type="linear" slope="0.4" intercept="0"/></feComponentTransfer><feGaussianBlur stdDeviation="6.11111 6.11111"/></filter><filter id="fx2" x="-10%" y="-10%" width="120%" height="120%" filterUnits="userSpaceOnUse" primitiveUnits="userSpaceOnUse"><feComponentTransfer color-interpolation-filters="sRGB"><feFuncR type="discrete" tableValues="0 0"/><feFuncG type="discrete" tableValues="0 0"/><feFuncB type="discrete" tableValues="0 0"/><feFuncA type="linear" slope="0.4" intercept="0"/></feComponentTransfer><feGaussianBlur stdDeviation="6.11111 6.11111"/></filter><filter id="fx3" x="-10%" y="-10%" width="120%" height="120%" filterUnits="userSpaceOnUse" primitiveUnits="userSpaceOnUse"><feComponentTransfer color-interpolation-filters="sRGB"><feFuncR type="discrete" tableValues="0 0"/><feFuncG type="discrete" tableValues="0 0"/><feFuncB type="discrete" tableValues="0 0"/><feFuncA type="linear" slope="0.4" intercept="0"/></feComponentTransfer><feGaussianBlur stdDeviation="7.63889 7.63889"/></filter><filter id="fx4" x="-10%" y="-10%" width="120%" height="120%" filterUnits="userSpaceOnUse" primitiveUnits="userSpaceOnUse"><feComponentTransfer color-interpolation-filters="sRGB"><feFuncR type="discrete" tableValues="0 0"/><feFuncG type="discrete" tableValues="0 0"/><feFuncB type="discrete" tableValues="0 0"/><feFuncA type="linear" slope="0.4" intercept="0"/></feComponentTransfer><feGaussianBlur stdDeviation="6.11111 6.11111"/></filter><filter id="fx5" x="-10%" y="-10%" width="120%" height="120%" filterUnits="userSpaceOnUse" primitiveUnits="userSpaceOnUse"><feComponentTransfer color-interpolation-filters="sRGB"><feFuncR type="discrete" tableValues="0 0"/><feFuncG type="discrete" tableValues="0 0"/><feFuncB type="discrete" tableValues="0 0"/><feFuncA type="linear" slope="0.4" intercept="0"/></feComponentTransfer><feGaussianBlur stdDeviation="6.11111 6.11111"/></filter><filter id="fx6" x="-10%" y="-10%" width="120%" height="120%" filterUnits="userSpaceOnUse" primitiveUnits="userSpaceOnUse"><feComponentTransfer color-interpolation-filters="sRGB"><feFuncR type="discrete" tableValues="0 0"/><feFuncG type="discrete" tableValues="0 0"/><feFuncB type="discrete" tableValues="0 0"/><feFuncA type="linear" slope="0.4" intercept="0"/></feComponentTransfer><feGaussianBlur stdDeviation="6.11111 6.11111"/></filter><filter id="fx7" x="-10%" y="-10%" width="120%" height="120%" filterUnits="userSpaceOnUse" primitiveUnits="userSpaceOnUse"><feComponentTransfer color-interpolation-filters="sRGB"><feFuncR type="discrete" tableValues="0 0"/><feFuncG type="discrete" tableValues="0 0"/><feFuncB type="discrete" tableValues="0 0"/><feFuncA type="linear" slope="0.4" intercept="0"/></feComponentTransfer><feGaussianBlur stdDeviation="6.11111 6.11111"/></filter><filter id="fx8" x="-10%" y="-10%" width="120%" height="120%" filterUnits="userSpaceOnUse" primitiveUnits="userSpaceOnUse"><feComponentTransfer color-interpolation-filters="sRGB"><feFuncR type="discrete" tableValues="0 0"/><feFuncG type="discrete" tableValues="0 0"/><feFuncB type="discrete" tableValues="0 0"/><feFuncA type="linear" slope="0.4" intercept="0"/></feComponentTransfer><feGaussianBlur stdDeviation="6.11111 6.11111"/></filter><filter id="fx9" x="-10%" y="-10%" width="120%" height="120%" filterUnits="userSpaceOnUse" primitiveUnits="userSpaceOnUse"><feComponentTransfer color-interpolation-filters="sRGB"><feFuncR type="discrete" tableValues="0 0"/><feFuncG type="discrete" tableValues="0 0"/><feFuncB type="discrete" tableValues="0 0"/><feFuncA type="linear" slope="0.4" intercept="0"/></feComponentTransfer><feGaussianBlur stdDeviation="6.11111 6.11111"/></filter><filter id="fx10" x="-10%" y="-10%" width="120%" height="120%" filterUnits="userSpaceOnUse" primitiveUnits="userSpaceOnUse"><feComponentTransfer color-interpolation-filters="sRGB"><feFuncR type="discrete" tableValues="0 0"/><feFuncG type="discrete" tableValues="0 0"/><feFuncB type="discrete" tableValues="0 0"/><feFuncA type="linear" slope="0.4" intercept="0"/></feComponentTransfer><feGaussianBlur stdDeviation="6.11111 6.11111"/></filter><filter id="fx11" x="-10%" y="-10%" width="120%" height="120%" filterUnits="userSpaceOnUse" primitiveUnits="userSpaceOnUse"><feComponentTransfer color-interpolation-filters="sRGB"><feFuncR type="discrete" tableValues="0 0"/><feFuncG type="discrete" tableValues="0 0"/><feFuncB type="discrete" tableValues="0 0"/><feFuncA type="linear" slope="0.4" intercept="0"/></feComponentTransfer><feGaussianBlur stdDeviation="6.11111 6.11111"/></filter><filter id="fx12" x="-10%" y="-10%" width="120%" height="120%" filterUnits="userSpaceOnUse" primitiveUnits="userSpaceOnUse"><feComponentTransfer color-interpolation-filters="sRGB"><feFuncR type="discrete" tableValues="0 0"/><feFuncG type="discrete" tableValues="0 0"/><feFuncB type="discrete" tableValues="0 0"/><feFuncA type="linear" slope="0.4" intercept="0"/></feComponentTransfer><feGaussianBlur stdDeviation="6.11111 6.11111"/></filter><clipPath id="clip13"><rect x="1210" y="45" width="1979" height="2366"/></clipPath></defs><g clip-path="url(#clip13)" transform="translate(-1210 -45)"><g filter="url(#fx0)" transform="translate(2307 44)"><g><path d="M155.519 19.9999 176.093 19.9999C189.793 27.42 200.24 39.1913 211.97 49.2223 227.091 62.4132 243.449 74.0472 259.67 85.8644 248.856 91.8645 245.511 104.323 240.104 114.491 215.911 165.928 180.079 212.097 165.004 267.519 151.487 317.581 163.767 371.445 189.656 415.37 213.941 458.883 255.637 488.93 298.25 512.839 273.232 519.801 248.077 526.396 223.013 533.267 213.345 535.648 204.456 540.274 196.391 546 151.487 528.915 109.012 504.182 75.8833 468.96 73.6839 466.624 71.6677 464.242 69.7434 461.768 23.2813 406.301 5.04464 325.276 34.5989 257.625 63.5574 190.341 109.745 130.843 129.31 59.4361 132.701 43.3595 139.803 27.42 155.519 19.9999Z" fill="#DD8858" fill-rule="evenodd"/></g></g><path d="M2476.27 63.9999 2496.84 63.9999C2510.54 71.42 2520.99 83.1913 2532.72 93.2223 2547.84 106.413 2564.2 118.047 2580.42 129.864 2569.61 135.865 2566.26 148.323 2560.85 158.491 2536.66 209.928 2500.83 256.097 2485.75 311.519 2472.24 361.581 2484.52 415.445 2510.41 459.37 2534.69 502.883 2576.39 532.93 2619 556.839 2593.98 563.801 2568.83 570.396 2543.76 577.267 2534.09 579.648 2525.21 584.274 2517.14 590 2472.24 572.915 2429.76 548.182 2396.63 512.96 2394.43 510.624 2392.42 508.242 2390.49 505.768 2344.03 450.301 2325.79 369.276 2355.35 301.625 2384.31 234.341 2430.49 174.843 2450.06 103.436 2453.45 87.3595 2460.55 71.42 2476.27 63.9999Z" fill="#DD8858" fill-rule="evenodd"/><g filter="url(#fx1)" transform="translate(2470 100)"><g><path d="M100.591 48.9058C106.012 38.7369 109.366 26.2777 120.208 20.2772 165.369 51.5623 217.238 73.1828 258.539 109.919 303.287 149.586 323.363 211.653 319.182 270.238 314.956 328.916 287.069 383.791 249.213 428.085 222.245 426.436 197.528 439.765 171.433 444.391 168.309 445.078 162.061 446.544 158.891 447.277 116.165 423.367 74.3581 393.318 50.0088 349.803 24.0516 305.875 11.7394 252.008 25.2922 201.942 40.4069 146.518 76.3337 100.345 100.591 48.9058Z" fill="#E39B74" fill-rule="evenodd"/></g></g><path d="M2560.87 158.629C2566.29 148.46 2569.64 136 2580.49 130 2625.65 161.285 2677.51 182.906 2718.82 219.641 2763.56 259.309 2783.64 321.376 2779.46 379.961 2775.23 438.638 2747.35 493.513 2709.49 537.807 2682.52 536.158 2657.81 549.488 2631.71 554.114 2628.59 554.801 2622.34 556.267 2619.17 557 2576.44 533.089 2534.64 503.041 2510.29 459.526 2484.33 415.598 2472.02 361.731 2485.57 311.665 2500.68 256.24 2536.61 210.068 2560.87 158.629Z" fill="#E39B74" fill-rule="evenodd"/><g filter="url(#fx2)" transform="translate(1530 483)"><g><path d="M692.082 64.5182C752.239 44.9881 813.908 30.9132 876.266 20.2772 909.416 55.5325 951.92 80.2889 996.854 97.3893 985.253 110.501 978.926 128.518 984.245 145.848 1009.51 238.456 1034.27 331.202 1059.99 423.672 1049.44 431.328 1039.08 441.506 1037.8 455.214 1036.38 473.415 1044.45 490.423 1048.44 507.845 1053.48 525.541 1056 547.18 1073.52 557.495 1092.22 569.324 1113.82 559.237 1133.08 554.653 1149.49 623.559 1165.22 692.648 1181.04 761.646 1129.04 783.285 1077.6 809.784 1037.34 849.898 1011.85 875.434 991.489 908.947 991.077 945.991 990.113 981.429 1008.04 1014.44 1031.61 1039.79 1067.92 1078.99 1115.65 1105.03 1163.66 1127.08 1210.11 1148.31 1251.88 1179.3 1286.08 1217.17 1312.77 1327.15 1334.04 1438.69 1370.72 1546.02 1348.26 1664.34 1263.94 1768.55 1152.43 1814.4 1067.97 1848.09 978.513 1868.08 888.554 1880.28 875.394 1873.49 860.63 1872.16 846.279 1870.1 623.764 1830.49 412.391 1721.79 257.002 1556.75 256.773 1554.82 256.314 1550.97 256.085 1549.04 302.119 1577.97 364.476 1579.12 410.969 1550.51 452.51 1525.66 481.488 1480.32 484.285 1431.72 489.1 1375.75 458.333 1320.18 410.557 1291.57 352.784 1256.55 271.812 1267.83 226.328 1317.94 185.382 1359.38 174.195 1424.76 195.516 1478.49 190.701 1474.96 185.337 1471.98 181.989 1466.93 123.988 1387.48 78.2744 1298.82 49.3883 1204.65 44.8033 1189.84 39.668 1175.13 37.8337 1159.68 79.4667 1170.18 125.18 1168.16 163.97 1148.77 205.557 1128.87 239.808 1093.34 256.177 1050.06 274.792 1002.38 271.766 946.678 247.648 901.475 229.262 864.294 196.249 836.42 159.339 818.586 115.368 800.569 63.8774 798.551 19.7228 817.21 32.7904 746.838 50.3511 677.015 79.0997 611.226 87.8573 591.834 94.4599 571.111 107.848 554.194 117.202 589.129 137.651 621.358 167.134 642.676 214.223 678.253 282.678 682.837 333.848 653.175 376.902 628.877 407.485 583.581 412.253 534.206 419.635 473.415 386.21 411.753 333.069 382.274 303.174 364.806 267.731 361.322 233.893 364.806 355.352 225.115 516.931 122.742 692.082 64.5182M541.462 258.491C517.986 305.803 522.204 365.586 552.603 408.864 573.603 439.902 606.616 462.32 643.113 470.801 679.29 478.733 718.08 473.186 750.496 455.168 794.788 428.348 826.013 379.615 826.013 327.167 828.351 273.253 797.356 220.806 750.955 194.169 727.066 179.361 698.501 173.081 670.624 174.043 616.245 175.556 564.799 209.573 541.462 258.491M679.84 1441.76C631.558 1477.66 608.908 1544.37 626.331 1602.13 641.967 1659.16 694.191 1703.59 752.834 1710.47 785.205 1714.04 819.502 1707.9 846.829 1689.79 893.322 1663.34 922.804 1609.56 920.145 1556.15 919.595 1505.72 890.158 1457.58 846.829 1432.23 796.577 1399.36 726.699 1405.45 679.84 1441.76Z" fill="#DBEDFF" fill-rule="evenodd"/><path d="M1236.72 118.277 1243.61 119.79C1326.41 160.374 1404.17 211.505 1473.39 272.495 1508.96 304.275 1535.86 346.005 1548.53 392.091 1567.9 460.556 1556.1 536.634 1518.37 596.798 1484.73 651.69 1429.14 691.677 1367.04 708.278 1345.92 641.418 1325.45 574.328 1303.65 507.698 1326.14 502.286 1356.34 496.417 1361.34 469.315 1363.04 442.443 1350.19 417.175 1344.77 391.22 1340.32 370.309 1320.31 359.303 1300.57 356.781 1280.47 276.944 1256.78 198.115 1236.72 118.277Z" fill="#DBEDFF" fill-rule="evenodd"/></g></g><path d="M2212.36 557.241C2272.52 537.711 2334.19 523.636 2396.54 513 2429.69 548.255 2472.2 573.012 2517.13 590.112 2505.53 603.224 2499.2 621.241 2504.52 638.571 2529.79 731.179 2554.55 823.925 2580.27 916.395 2569.72 924.051 2559.36 934.229 2558.08 947.937 2556.65 966.137 2564.72 983.146 2568.71 1000.57 2573.76 1018.26 2576.28 1039.9 2593.79 1050.22 2612.5 1062.05 2634.1 1051.96 2653.35 1047.38 2669.77 1116.28 2685.5 1185.37 2701.31 1254.37 2649.32 1276.01 2597.87 1302.51 2557.62 1342.62 2532.12 1368.16 2511.77 1401.67 2511.35 1438.71 2510.39 1474.15 2528.32 1507.16 2551.89 1532.51 2588.2 1571.71 2635.93 1597.75 2683.94 1619.8 2730.38 1641.03 2772.15 1672.02 2806.36 1709.89 2833.04 1819.87 2854.32 1931.42 2891 2038.74 2868.53 2157.07 2784.21 2261.27 2672.7 2307.12 2588.25 2340.82 2498.79 2360.81 2408.83 2373 2395.67 2366.21 2380.91 2364.89 2366.56 2362.82 2144.04 2323.21 1932.67 2214.51 1777.28 2049.47 1777.05 2047.54 1776.59 2043.69 1776.36 2041.77 1822.4 2070.69 1884.75 2071.84 1931.25 2043.23 1972.79 2018.38 2001.77 1973.04 2004.56 1924.45 2009.38 1868.47 1978.61 1812.9 1930.83 1784.3 1873.06 1749.27 1792.09 1760.55 1746.6 1810.66 1705.66 1852.1 1694.47 1917.48 1715.79 1971.21 1710.98 1967.68 1705.61 1964.7 1702.27 1959.66 1644.27 1880.21 1598.55 1791.54 1569.67 1697.37 1565.08 1682.57 1559.95 1667.85 1558.11 1652.4 1599.74 1662.9 1645.46 1660.88 1684.25 1641.49 1725.83 1621.59 1760.08 1586.06 1776.45 1542.78 1795.07 1495.1 1792.04 1439.4 1767.93 1394.2 1749.54 1357.02 1716.53 1329.14 1679.62 1311.31 1635.65 1293.29 1584.15 1291.27 1540 1309.93 1553.07 1239.56 1570.63 1169.74 1599.38 1103.95 1608.13 1084.56 1614.74 1063.83 1628.13 1046.92 1637.48 1081.85 1657.93 1114.08 1687.41 1135.4 1734.5 1170.98 1802.96 1175.56 1854.13 1145.9 1897.18 1121.6 1927.76 1076.3 1932.53 1026.93 1939.91 966.137 1906.49 904.475 1853.35 874.996 1823.45 857.529 1788.01 854.045 1754.17 857.529 1875.63 717.838 2037.21 615.465 2212.36 557.241M2061.74 751.213C2038.26 798.526 2042.48 858.309 2072.88 901.587 2093.88 932.624 2126.89 955.043 2163.39 963.524 2199.57 971.455 2238.36 965.908 2270.77 947.891 2315.07 921.071 2346.29 872.337 2346.29 819.89 2348.63 765.976 2317.63 713.528 2271.23 686.892 2247.34 672.084 2218.78 665.803 2190.9 666.766 2136.52 668.279 2085.08 702.296 2061.74 751.213M2200.12 1934.49C2151.84 1970.38 2129.19 2037.09 2146.61 2094.85 2162.24 2151.89 2214.47 2196.31 2273.11 2203.19 2305.48 2206.76 2339.78 2200.62 2367.11 2182.51 2413.6 2156.06 2443.08 2102.28 2440.42 2048.87 2439.87 1998.44 2410.44 1950.3 2367.11 1924.95 2316.85 1892.08 2246.98 1898.18 2200.12 1934.49Z" fill="#DBEDFF" fill-rule="evenodd"/><path d="M2757 611 2763.88 612.513C2846.69 653.097 2924.45 704.228 2993.67 765.218 3029.24 796.997 3056.14 838.727 3068.81 884.814 3088.18 953.279 3076.38 1029.36 3038.65 1089.52 3005 1144.41 2949.42 1184.4 2887.31 1201 2866.2 1134.14 2845.73 1067.05 2823.92 1000.42 2846.42 995.009 2876.62 989.139 2881.62 962.038 2883.32 935.165 2870.47 909.898 2865.05 883.943 2860.6 863.032 2840.59 852.026 2820.85 849.504 2800.74 769.666 2777.06 690.837 2757 611Z" fill="#DBEDFF" fill-rule="evenodd"/><path d="M2631.75 554.455C2657.82 549.827 2682.51 536.49 2709.46 538.14 2722.86 542.494 2736.08 550.285 2742.19 563.53 2748.57 578.011 2751.37 593.731 2755.91 608.808 2757.93 609.908 2761.97 612.062 2764.04 613.162L2757.15 611.65C2777.21 691.437 2800.9 770.217 2821 850.004 2786.07 864.991 2747.6 869.619 2712.12 883.047 2700.51 892.946 2697.52 910.178 2701.84 924.384 2708.13 948.353 2713.77 972.596 2721.99 996.06 2726.17 1009.44 2740.4 1014.48 2751.6 1020.58 2719.1 1030.29 2686.28 1038.77 2653.55 1047.62 2634.27 1052.2 2612.65 1062.28 2593.92 1050.46 2576.39 1040.15 2573.86 1018.52 2568.81 1000.83 2564.82 983.412 2556.74 966.409 2558.17 948.215 2559.45 934.513 2569.82 924.339 2580.38 916.685 2621.46 904.266 2663.05 893.083 2704.69 882.497 2699.82 845.605 2686.88 810.271 2678.11 774.158 2661.26 714.168 2645.7 653.858 2628.53 594.006 2624.54 580.898 2629.64 567.425 2631.75 554.455Z" fill="#477B9E" fill-rule="evenodd"/><path d="M2618.97 556.893C2622.12 556.159 2628.33 554.689 2631.44 554 2629.34 566.997 2624.27 580.5 2628.24 593.634 2645.32 653.614 2660.8 714.053 2677.56 774.17 2686.28 810.36 2699.16 845.769 2704 882.739 2662.58 893.348 2621.21 904.554 2580.34 917 2554.72 824.367 2530.06 731.459 2504.9 638.688 2499.6 621.328 2505.9 603.279 2517.46 590.144 2525.49 584.403 2534.35 579.765 2543.99 577.377 2568.97 570.487 2594.04 563.874 2618.97 556.893Z" fill="#3F6D8E" fill-rule="evenodd"/><g filter="url(#fx3)" transform="translate(2166 647)"><g><path d="M96.7023 23.7502C144.015 50.9193 175.618 104.416 173.234 159.409 173.234 212.905 141.396 262.614 96.235 289.97 89.1286 276.643 74.7293 270.19 64.9582 259.247 47.2397 242.039 37.9827 218.563 30.5025 195.51 18.6747 160.25 25.1262 120.783 41.4425 88.002 53.9719 62.0022 76.9733 43.9517 96.7023 23.7502Z" fill="#FFD064" fill-rule="evenodd"/><path d="M604.82 359.132C623.45 354.223 641.939 348.659 660.663 344.03 682.897 411.966 703.774 480.37 725.306 548.54 778.013 716.067 830.579 883.641 883.24 1051.21 911.465 1142.29 942.594 1232.77 961.785 1326.37 987.296 1442.89 998.624 1562.12 999.56 1681.25 986.032 1670.82 981.024 1653.8 971.662 1640.2 893.959 1502.22 835.12 1353.4 799.031 1199.15 734.294 919.175 669.463 639.153 604.82 359.132Z" fill="#FFD064" fill-rule="evenodd"/></g></g><path d="M2270.85 687C2317.23 713.637 2348.21 766.084 2345.88 819.999 2345.88 872.446 2314.66 921.18 2270.39 948 2263.42 934.934 2249.3 928.607 2239.72 917.879 2222.35 901.008 2213.28 877.994 2205.94 855.392 2194.35 820.824 2200.67 782.13 2216.67 749.992 2228.95 724.502 2251.5 706.806 2270.85 687Z" fill="#FFD064" fill-rule="evenodd"/><path d="M2769 1015.81C2787.26 1010.99 2805.39 1005.54 2823.75 1001 2845.55 1067.6 2866.01 1134.67 2887.12 1201.5 2938.8 1365.74 2990.33 1530.03 3041.96 1694.32 3069.63 1783.61 3100.15 1872.31 3118.97 1964.08 3143.98 2078.31 3155.08 2195.2 3156 2312 3142.74 2301.78 3137.83 2285.09 3128.65 2271.75 3052.47 2136.48 2994.78 1990.58 2959.4 1839.35 2895.94 1564.87 2832.38 1290.34 2769 1015.81Z" fill="#FFD064" fill-rule="evenodd"/><path d="M2820.4 850C2840.03 852.527 2859.94 863.553 2864.37 884.504 2869.75 910.507 2882.54 935.822 2880.85 962.744 2875.87 989.897 2845.83 995.778 2823.46 1001.2 2805.19 1005.75 2787.16 1011.21 2768.99 1016.04 2763.1 1017.65 2757.21 1019.3 2751.36 1021 2740.22 1014.89 2726.07 1009.84 2721.91 996.421 2713.74 972.898 2708.13 948.594 2701.87 924.566 2697.58 910.323 2700.55 893.049 2712.1 883.125 2747.39 869.664 2785.65 865.023 2820.4 850Z" fill="#5895B7" fill-rule="evenodd"/><g filter="url(#fx4)" transform="translate(1594 826)"><g><path d="M60.1012 71.3779C83.2765 44.8958 115.906 28.0227 150.233 21.4944 184.101 18.0002 219.576 21.4944 249.497 39.0109 241.42 48.5279 231.14 55.6543 221.64 63.6078 188.965 96.6644 169.553 144.249 175.244 191.052 179.191 221.12 191.306 250.223 210.259 273.946 221.411 288.429 237.336 297.946 250.277 310.681 199.062 340.427 130.545 335.83 83.4144 300.152 53.9059 278.774 33.438 246.453 24.076 211.42 13.1998 162.502 25.8201 108.388 60.1012 71.3779Z" fill="#EC625E" fill-rule="evenodd"/></g></g><path d="M1663.82 907.101C1687 880.619 1719.63 863.745 1753.96 857.217 1787.82 853.723 1823.3 857.217 1853.22 874.734 1845.14 884.251 1834.86 891.377 1825.36 899.331 1792.69 932.387 1773.28 979.972 1778.97 1026.77 1782.91 1056.84 1795.03 1085.95 1813.98 1109.67 1825.13 1124.15 1841.06 1133.67 1854 1146.4 1802.78 1176.15 1734.27 1171.55 1687.14 1135.88 1657.63 1114.5 1637.16 1082.18 1627.8 1047.14 1616.92 998.224 1629.54 944.111 1663.82 907.101Z" fill="#EC625E" fill-rule="evenodd"/><g filter="url(#fx5)" transform="translate(1768 845)"><g><path d="M94.7133 20.2771C147.727 49.7666 181.072 111.451 173.707 172.265 168.951 221.658 138.441 266.971 95.4908 291.278 82.5918 278.574 66.7199 269.08 55.605 254.634 36.7139 230.969 24.6385 201.938 20.7046 171.944 15.033 125.256 34.3812 77.7885 66.9485 44.8134 76.4169 36.8795 86.6629 29.7707 94.7133 20.2771Z" fill="#F87C68" fill-rule="evenodd"/></g></g><path d="M1852.99 875C1906 904.489 1939.35 966.174 1931.98 1026.99 1927.23 1076.38 1896.72 1121.69 1853.77 1146 1840.87 1133.3 1825 1123.8 1813.88 1109.36 1794.99 1085.69 1782.92 1056.66 1778.98 1026.67 1773.31 979.979 1792.66 932.511 1825.23 899.536 1834.69 891.602 1844.94 884.493 1852.99 875Z" fill="#F87C68" fill-rule="evenodd"/><g filter="url(#fx6)" transform="translate(1397 1267)"><g><path d="M133.285 33.3781C177.361 14.7111 228.761 16.7293 272.655 34.7541 262.723 49.7978 243.682 55.2098 232.331 69.2449 197.5 99.47 178.002 144.188 174.615 189.732 170.862 244.037 193.427 299.947 234.528 335.721 247.344 347.463 262.814 355.627 277.277 365.075 238.556 384.476 192.923 386.494 151.364 375.991 136.672 370.716 122.117 364.754 108.706 356.727 43.5297 318.98 7.05071 237.019 24.718 163.406 36.2065 105.478 78.7267 55.3476 133.285 33.3781Z" fill="#FF72C7" fill-rule="evenodd"/></g></g><path d="M1540.01 1310.1C1584.08 1291.43 1635.48 1293.45 1679.38 1311.48 1669.45 1326.52 1650.4 1331.93 1639.05 1345.97 1604.22 1376.19 1584.72 1420.91 1581.34 1466.46 1577.58 1520.76 1600.15 1576.67 1641.25 1612.44 1654.07 1624.19 1669.54 1632.35 1684 1641.8 1645.28 1661.2 1599.65 1663.22 1558.09 1652.71 1543.39 1647.44 1528.84 1641.48 1515.43 1633.45 1450.25 1595.7 1413.77 1513.74 1431.44 1440.13 1442.93 1382.2 1485.45 1332.07 1540.01 1310.1Z" fill="#FF72C7" fill-rule="evenodd"/><g filter="url(#fx7)" transform="translate(1571 1282)"><g><path d="M118.099 20.2773C154.918 38.1015 187.85 65.9606 206.192 103.121 230.25 148.3 233.269 203.972 214.699 251.626 198.37 294.881 164.204 330.392 122.718 350.278 108.265 340.839 92.8054 332.682 79.9987 320.952 38.9253 285.212 16.376 229.357 20.1265 175.105 23.5114 129.605 42.9959 84.9304 77.8029 54.7346 89.1463 40.7135 108.174 35.3064 118.099 20.2773Z" fill="#FF94D5" fill-rule="evenodd"/></g></g><path d="M1679.38 1312C1716.2 1329.82 1749.13 1357.68 1767.47 1394.84 1791.53 1440.02 1794.55 1495.7 1775.98 1543.35 1759.65 1586.6 1725.48 1622.11 1684 1642 1669.54 1632.56 1654.08 1624.41 1641.28 1612.68 1600.2 1576.94 1577.65 1521.08 1581.4 1466.83 1584.79 1421.33 1604.27 1376.65 1639.08 1346.46 1650.42 1332.44 1669.45 1327.03 1679.38 1312Z" fill="#FF94D5" fill-rule="evenodd"/><g filter="url(#fx8)" transform="translate(1675 1734)"><g><path d="M61.6682 67.0761C107.145 16.8143 188.103 5.50165 245.865 40.6347 216.663 64.3172 188.149 93.1961 179.943 131.318 167.703 176.154 177.422 226.048 205.477 262.974 216.571 277.965 232.662 287.944 246.277 300.36 199.793 329.055 137.447 327.905 91.4202 298.889 64.3731 282.058 44.3856 256.674 30.8617 228.117 9.54477 174.222 20.7307 108.647 61.6682 67.0761Z" fill="#2E82D4" fill-rule="evenodd"/></g></g><path d="M1746.39 1810.8C1791.87 1760.54 1872.83 1749.22 1930.59 1784.36 1901.39 1808.04 1872.87 1836.92 1864.67 1875.04 1852.43 1919.88 1862.14 1969.77 1890.2 2006.7 1901.29 2021.69 1917.38 2031.67 1931 2044.08 1884.52 2072.78 1822.17 2071.63 1776.14 2042.61 1749.1 2025.78 1729.11 2000.4 1715.58 1971.84 1694.27 1917.94 1705.45 1852.37 1746.39 1810.8Z" fill="#2E82D4" fill-rule="evenodd"/><g filter="url(#fx9)" transform="translate(1850 1755)"><g><path d="M90.6816 20.2773C138.342 48.8922 169.032 104.471 164.23 160.462 161.44 209.07 132.533 254.423 91.0934 279.278 77.5088 266.896 61.4547 256.945 50.3859 241.996 22.3938 205.173 12.6968 155.418 24.9093 110.707 33.0965 72.6919 61.5462 43.8937 90.6816 20.2773Z" fill="#5291D9" fill-rule="evenodd"/></g></g><path d="M1930.96 1785C1978.62 1813.61 2009.31 1869.19 2004.51 1925.19 2001.72 1973.79 1972.81 2019.15 1931.37 2044 1917.79 2031.62 1901.73 2021.67 1890.66 2006.72 1862.67 1969.9 1852.97 1920.14 1865.19 1875.43 1873.37 1837.41 1901.82 1808.62 1930.96 1785Z" fill="#5291D9" fill-rule="evenodd"/><g filter="url(#fx10)" transform="translate(2111 1874)"><g><path d="M79.5366 51.3472C126.326 15.003 196.099 8.89987 246.277 41.8022 204.707 69.1063 176.184 115.454 174.856 165.795 171.697 219.577 202.601 270.147 246.277 299.607 218.991 317.733 184.745 323.883 152.423 320.303 93.8664 313.42 41.7197 268.953 26.1078 211.867 8.71015 154.047 31.327 87.2785 79.5366 51.3472Z" fill="#78C2A4" fill-rule="evenodd"/></g></g><path d="M2200.26 1935.07C2247.05 1898.73 2316.82 1892.62 2367 1925.52 2325.43 1952.83 2296.91 1999.18 2295.58 2049.52 2292.42 2103.3 2323.32 2153.87 2367 2183.33 2339.71 2201.46 2305.47 2207.61 2273.15 2204.03 2214.59 2197.14 2162.44 2152.68 2146.83 2095.59 2129.43 2037.77 2152.05 1971 2200.26 1935.07Z" fill="#78C2A4" fill-rule="evenodd"/><g filter="url(#fx11)" transform="translate(2285 1895)"><g><path d="M91.8522 20.2772C135.41 45.673 165.003 93.893 165.556 144.41 168.229 197.911 138.591 251.78 91.8522 278.277 47.879 248.795 16.7658 198.186 19.9461 144.363 21.2829 93.9848 49.999 47.602 91.8522 20.2772Z" fill="#95D6A4" fill-rule="evenodd"/></g></g><path d="M2367.13 1925C2410.69 1950.4 2440.28 1998.62 2440.83 2049.13 2443.51 2102.63 2413.87 2156.5 2367.13 2183 2323.16 2153.52 2292.04 2102.91 2295.22 2049.09 2296.56 1998.71 2325.28 1952.32 2367.13 1925Z" fill="#95D6A4" fill-rule="evenodd"/><g filter="url(#fx12)" transform="translate(1209 480)"><g><path d="M996.488 22.0637C1053.6 17.0178 1110.79 22.4309 1167.81 25.5043 1169.74 27.9812 1171.76 30.3669 1173.96 32.7063 1111.57 43.3484 1049.88 57.4311 989.7 76.9725 814.478 135.23 652.834 237.662 531.326 377.435 497.016 383.948 464.402 400.783 441.238 427.206 406.974 464.133 394.36 518.124 405.23 566.932 391.837 583.859 385.232 604.593 376.471 623.996 347.71 689.823 330.142 759.686 317.069 830.1 262.393 852.073 219.78 902.21 208.267 960.147 190.561 1033.77 227.12 1115.74 292.438 1153.5 305.877 1161.52 320.464 1167.49 335.188 1172.76 337.023 1188.22 342.16 1202.95 346.747 1217.76 375.645 1311.98 421.377 1400.7 479.402 1480.2 482.75 1485.24 488.117 1488.23 492.933 1491.76 506.464 1520.24 526.464 1545.57 553.527 1562.35 553.756 1564.28 554.215 1568.13 554.444 1570.06 709.896 1735.2 921.354 1843.96 1143.96 1883.6 1158.32 1885.66 1173.09 1886.99 1186.25 1893.78 1012.08 1915.48 832.872 1893.87 668.246 1833.09 458.531 1755.98 270.742 1612.86 152.444 1421.99 47.2193 1254.37 1.7628 1050.1 27.1285 853.77 45.7977 698.217 109.189 549.133 204.598 425.187 294.226 307.342 411.698 211.607 542.931 143.487 682.924 70.734 839.018 29.6788 996.488 22.0637Z" fill="#B5DCFF" fill-rule="evenodd"/></g></g><path d="M2219.24 502.064C2276.35 497.018 2333.54 502.431 2390.56 505.504 2392.49 507.981 2394.51 510.367 2396.71 512.706 2334.32 523.348 2272.63 537.431 2212.45 556.972 2037.23 615.23 1875.58 717.662 1754.08 857.435 1719.77 863.948 1687.15 880.783 1663.99 907.206 1629.72 944.133 1617.11 998.124 1627.98 1046.93 1614.59 1063.86 1607.98 1084.59 1599.22 1104 1570.46 1169.82 1552.89 1239.69 1539.82 1310.1 1485.14 1332.07 1442.53 1382.21 1431.02 1440.15 1413.31 1513.77 1449.87 1595.74 1515.19 1633.5 1528.63 1641.52 1543.21 1647.49 1557.94 1652.76 1559.77 1668.22 1564.91 1682.95 1569.5 1697.76 1598.4 1791.98 1644.13 1880.7 1702.15 1960.2 1705.5 1965.24 1710.87 1968.23 1715.68 1971.76 1729.21 2000.24 1749.21 2025.57 1776.28 2042.35 1776.51 2044.28 1776.96 2048.13 1777.19 2050.06 1932.65 2215.2 2144.1 2323.96 2366.71 2363.6 2381.07 2365.66 2395.84 2366.99 2409 2373.78 2234.83 2395.48 2055.62 2373.87 1891 2313.09 1681.28 2235.98 1493.49 2092.86 1375.19 1901.99 1269.97 1734.37 1224.51 1530.1 1249.88 1333.77 1268.55 1178.22 1331.94 1029.13 1427.35 905.187 1516.98 787.342 1634.45 691.607 1765.68 623.487 1905.67 550.734 2061.77 509.679 2219.24 502.064Z" fill="#B5DCFF" fill-rule="evenodd"/><path d="M2062.01 751.436C2085.29 702.581 2136.61 668.606 2190.86 667.095 2218.67 666.134 2247.17 672.407 2271 687.196 2251.7 706.976 2229.19 724.65 2216.93 750.108 2200.97 782.205 2194.66 820.85 2206.23 855.374 2213.55 877.947 2222.61 900.933 2239.94 917.782 2249.5 928.497 2263.59 934.815 2270.54 947.865 2238.2 965.859 2199.51 971.4 2163.42 963.478 2127.01 955.008 2094.07 932.618 2073.12 901.62 2042.79 858.396 2038.59 798.689 2062.01 751.436Z" fill="#FFC250" fill-rule="evenodd"/><path d="M2750.95 1020.95C2756.82 1019.25 2762.74 1017.6 2768.66 1016 2831.99 1290.46 2895.5 1564.93 2958.92 1839.34 2994.28 1990.53 3051.92 2136.4 3128.05 2271.64 3137.22 2284.97 3142.13 2301.66 3155.38 2311.87 3156.25 2332.45 3159.42 2353.76 3153.45 2373.88 3148.14 2392.07 3131.95 2404.58 3114.8 2411L3089.89 2411C3076.92 2407.01 3064.17 2400.19 3056.6 2388.5 2989.6 2278.01 2932.14 2161.47 2890.69 2038.97 2854 1931.69 2832.72 1820.19 2806.03 1710.25 2771.36 1558.37 2736 1406.68 2700.97 1254.9 2685.15 1185.93 2669.42 1116.87 2653 1047.99 2685.7 1039.14 2718.49 1030.67 2750.95 1020.95Z" fill="#FFC250" fill-rule="evenodd"/></g></svg>