<svg width="1759" height="1760" xmlns="http://www.w3.org/2000/svg" xmlns:xlink="http://www.w3.org/1999/xlink" xml:space="preserve" overflow="hidden"><defs><filter id="fx0" x="-10%" y="-10%" width="120%" height="120%" filterUnits="userSpaceOnUse" primitiveUnits="userSpaceOnUse"><feComponentTransfer color-interpolation-filters="sRGB"><feFuncR type="discrete" tableValues="0 0"/><feFuncG type="discrete" tableValues="0 0"/><feFuncB type="discrete" tableValues="0 0"/><feFuncA type="linear" slope="0.4" intercept="0"/></feComponentTransfer><feGaussianBlur stdDeviation="7.63889 7.63889"/></filter><filter id="fx1" x="-10%" y="-10%" width="120%" height="120%" filterUnits="userSpaceOnUse" primitiveUnits="userSpaceOnUse"><feComponentTransfer color-interpolation-filters="sRGB"><feFuncR type="discrete" tableValues="0 0"/><feFuncG type="discrete" tableValues="0 0"/><feFuncB type="discrete" tableValues="0 0"/><feFuncA type="linear" slope="0.4" intercept="0"/></feComponentTransfer><feGaussianBlur stdDeviation="7.63889 7.63889"/></filter><filter id="fx2" x="-10%" y="-10%" width="120%" height="120%" filterUnits="userSpaceOnUse" primitiveUnits="userSpaceOnUse"><feComponentTransfer color-interpolation-filters="sRGB"><feFuncR type="discrete" tableValues="0 0"/><feFuncG type="discrete" tableValues="0 0"/><feFuncB type="discrete" tableValues="0 0"/><feFuncA type="linear" slope="0.4" intercept="0"/></feComponentTransfer><feGaussianBlur stdDeviation="7.63889 7.63889"/></filter><filter id="fx3" x="-10%" y="-10%" width="120%" height="120%" filterUnits="userSpaceOnUse" primitiveUnits="userSpaceOnUse"><feComponentTransfer color-interpolation-filters="sRGB"><feFuncR type="discrete" tableValues="0 0"/><feFuncG type="discrete" tableValues="0 0"/><feFuncB type="discrete" tableValues="0 0"/><feFuncA type="linear" slope="0.4" intercept="0"/></feComponentTransfer><feGaussianBlur stdDeviation="7.63889 7.63889"/></filter><clipPath id="clip4"><rect x="2740" y="428" width="1759" height="1760"/></clipPath><clipPath id="clip5"><rect x="1" y="-7" width="766" height="738"/></clipPath><clipPath id="clip6"><path d="M3907.65 983.15 3943.64 1121.69 3822.74 1206.99 3965.88 1207.31 4001.86 1345.85 4054.34 1207.51 4197.47 1207.83 4086.77 1122.01 4139.25 983.666 4018.35 1068.97ZM2740 428 4499 428 4499 2188 2740 2188Z" fill-rule="evenodd" clip-rule="evenodd"/></clipPath><linearGradient x1="4139.25" y1="983.666" x2="3912.3" y2="1276.42" gradientUnits="userSpaceOnUse" spreadMethod="reflect" id="fill7"><stop offset="0" stop-color="#FFC000"/><stop offset="0.16" stop-color="#FFC000"/><stop offset="1" stop-color="#FFFF00"/></linearGradient><clipPath id="clip8"><rect x="44" y="25" width="593" height="443"/></clipPath></defs><g clip-path="url(#clip4)" transform="translate(-2740 -428)"><rect x="2740" y="428" width="1759" height="1760" fill="#FFFFFF" fill-opacity="0"/><path d="M2833 995.647C2833 845.068 2955.07 723 3105.65 723L4135.35 723C4285.93 723 4408 845.068 4408 995.647L4408 1694.35C4408 1844.93 4285.93 1967 4135.35 1967L3105.65 1967C2955.07 1967 2833 1844.93 2833 1694.35Z" fill="#000000" fill-rule="evenodd" fill-opacity="0.101961"/><path d="M2846 1673 4397 1673C4397 1827.64 4281.26 1953 4138.5 1953L3104.51 1953C2961.74 1953 2846 1827.64 2846 1673Z" fill="#9E439E" fill-rule="evenodd"/><path d="M2846 986C2846 848.481 2961.74 737 3104.51 737L4138.5 737C4281.26 737 4397 848.481 4397 986L2846 986Z" fill="#F167F1" fill-rule="evenodd"/><path d="M2846 970.234C2846 865.238 2957.55 756 3089.8 756L4140.18 756C4272.43 756 4397 865.238 4397 970.234L4397 1730.66C4397 1835.65 4272.43 1938 4140.18 1938L3090.89 1937.43C2958.64 1937.43 2846 1835.65 2846 1730.66L2846 970.234Z" fill="#BD4FBD" fill-rule="evenodd"/><path d="M2846 965C2846 848.468 2961.74 754 3104.51 754L4138.5 754C4281.26 754 4397 848.468 4397 965L2846 965Z" fill="#AC48AC" fill-rule="evenodd"/><rect x="2847" y="965" width="1550" height="343" fill="#AC48AC"/><g clip-path="url(#clip5)" filter="url(#fx0)" transform="translate(3292 1102)"><g><path d="M0 0 665.798 634.752" stroke="#996633" stroke-width="56" stroke-miterlimit="8" fill="none" fill-rule="evenodd" transform="matrix(-1 0 0 1 717.856 44.201)"/></g></g><path d="M0 0 652.743 622.306" stroke="#996633" stroke-width="55" stroke-miterlimit="8" fill="none" fill-rule="evenodd" transform="matrix(-1 0 0 1 4003.24 1152.5)"/><g filter="url(#fx1)" transform="translate(3337 1142)"><g><path d="M0 0 665.798 634.752" stroke="#663300" stroke-width="28" stroke-miterlimit="8" fill="none" fill-rule="evenodd" transform="matrix(-1 0 0 1 704.313 33.7391)"/></g></g><path d="M0 0 652.743 622.306" stroke="#663300" stroke-width="27.5" stroke-miterlimit="8" fill="none" fill-rule="evenodd" transform="matrix(-1 0 0 1 4034.74 1182)"/><g clip-path="url(#clip6)"><g filter="url(#fx2)" transform="translate(3788 949)"><g><path d="M117.607 30.5073 230.523 118.043 353.836 31.0335 300.308 172.142 413.225 259.676 267.226 259.35 213.699 400.46 176.996 259.149 30.9974 258.825 154.312 171.817Z" stroke="#B48900" stroke-width="4.675" stroke-miterlimit="8" fill="#FF0000" fill-rule="evenodd"/></g></g></g><path d="M3907.65 983.15 4018.35 1068.97 4139.25 983.666 4086.77 1122.01 4197.47 1207.83 4054.34 1207.51 4001.86 1345.85 3965.88 1207.31 3822.74 1206.99 3943.64 1121.69Z" stroke="#B48900" stroke-width="4.58333" stroke-miterlimit="8" fill="url(#fill7)" fill-rule="evenodd"/><g clip-path="url(#clip8)" filter="url(#fx3)" transform="translate(3016 846)"><g><g><g><g><path d="M69.3997 32.0938C78.4769 31.3593 85.1405 38.775 93.4832 41.0486 102.228 43.1474 109.591 48.5168 117.969 51.5076 126.294 53.9561 133.815 58.3986 142.175 60.7597 150.587 64.7998 158.913 69.0499 167.885 71.7608 179.883 78.4069 193.21 81.8524 205.226 88.4636 216.944 91.7866 227.14 98.7476 238.806 102.228 249.353 106.898 260.389 110.308 270.533 115.888 281.254 119.141 290.978 124.668 301.175 129.18 302.067 132.066 303.571 134.864 303.309 137.977 303.256 150.92 303.256 163.862 303.309 176.787 303.519 180.478 301.892 183.871 301.105 187.386 284.245 192.755 267.944 199.769 251.871 207.15 241.954 210 233.314 215.877 223.52 219.008 215.405 221.614 208.269 226.511 200.136 229.029 191.619 231.705 184.15 236.812 175.633 239.506 169.669 241.5 164.125 244.525 158.126 246.432 149.608 249.09 142.192 254.372 133.64 256.908 125.542 259.374 118.529 264.359 110.466 266.912 100.567 269.921 91.9615 275.972 81.9923 278.84 78.0047 279.82 73.947 284 69.7669 281.989 65.1846 271.687 62.4912 260.633 58.6784 250.035 56.6671 243.563 53.5714 237.372 52.9242 230.551 61.2844 225.689 70.3616 222.488 79.3514 219.078 88.516 213.708 98.835 211.05 108.367 206.485 117.252 202.935 126.836 201.133 135.249 196.411 143.312 191.811 152.476 189.765 160.784 185.637 182.944 177.539 204.316 167.448 226.668 159.857 226.651 158.196 226.686 156.517 226.773 154.855 168.707 132.433 111.27 108.454 53.1866 86.1374 53.0991 82.0273 52.8018 77.7423 54.6557 73.9295 59.8677 60.0951 63.3657 45.596 69.3997 32.0938Z" fill="#FFFFFF" transform="matrix(1 0 0 1.00009 23.9299 23.8588)"/><path d="M303.431 357.667C395.463 357.457 487.477 357.667 579.491 357.562 580.19 360.728 581.502 363.824 581.345 367.147 581.327 379.512 581.327 391.86 581.345 404.208 581.45 406.883 580.505 409.419 579.858 411.973 577.304 412.62 574.768 413.565 572.11 413.442 485.115 413.425 398.139 413.425 311.162 413.442 308.398 413.565 305.862 412.41 303.274 411.728 303.396 393.714 303.099 375.682 303.431 357.667Z" fill="#FFFFFF" transform="matrix(1 0 0 1.00009 23.9299 23.8588)"/></g></g></g></g></g><g><g><g><path d="M68.0389 31.4646C76.9381 30.7444 83.4711 38.0147 91.6502 40.2438 100.224 42.3014 107.442 47.5655 115.656 50.4976 123.818 52.8982 131.191 57.2535 139.387 59.5683 147.635 63.5292 155.797 67.6959 164.593 70.3537 176.356 76.8695 189.422 80.2475 201.202 86.729 212.69 89.9869 222.687 96.8114 234.124 100.224 244.463 104.802 255.283 108.145 265.228 113.615 275.739 116.805 285.273 122.223 295.27 126.647 296.144 129.476 297.619 132.22 297.361 135.272 297.31 147.961 297.31 160.649 297.361 173.321 297.567 176.939 295.973 180.265 295.201 183.712 278.671 188.976 262.69 195.852 246.932 203.088 237.21 205.883 228.74 211.644 219.137 214.713 211.181 217.268 204.185 222.069 196.212 224.539 187.861 227.162 180.54 232.169 172.189 234.81 166.342 236.764 160.906 239.731 155.025 241.6 146.675 244.206 139.404 249.384 131.019 251.871 123.08 254.288 116.204 259.175 108.3 261.679 98.5946 264.628 90.1584 270.561 80.3846 273.373 76.4752 274.333 72.4971 278.431 68.399 276.459 63.9065 266.36 61.2659 255.523 57.5278 245.132 55.5559 238.788 52.5209 232.718 51.8865 226.03 60.0827 221.264 68.982 218.126 77.7955 214.782 86.7804 209.518 96.8971 206.912 106.242 202.436 114.953 198.955 124.349 197.189 132.597 192.56 140.502 188.05 149.487 186.044 157.631 181.997 179.357 174.058 200.31 164.164 222.224 156.723 222.207 155.094 222.241 153.448 222.327 151.819 165.399 129.836 109.089 106.328 52.1437 84.4485 52.058 80.4189 51.7665 76.2179 53.584 72.4799 58.6938 58.9167 62.1232 44.702 68.0389 31.4646Z" fill="#FFFFFF" transform="matrix(1 0 0 1.00009 3046 874.215)"/><path d="M297.481 350.654C387.708 350.448 477.918 350.654 568.128 350.551 568.814 353.655 570.1 356.69 569.946 359.948 569.929 372.07 569.929 384.176 569.946 396.282 570.049 398.905 569.123 401.392 568.488 403.895 565.985 404.53 563.498 405.455 560.892 405.335 475.603 405.318 390.332 405.318 305.06 405.335 302.351 405.455 299.865 404.324 297.327 403.655 297.447 385.994 297.156 368.315 297.481 350.654Z" fill="#FFFFFF" transform="matrix(1 0 0 1.00009 3046 874.215)"/></g></g></g></g></svg>