<svg width="60" height="60" xmlns="http://www.w3.org/2000/svg" xmlns:xlink="http://www.w3.org/1999/xlink" xml:space="preserve" overflow="hidden"><g transform="translate(-805 -572)"><path d="M807.5 583.667C807.5 578.604 811.604 574.5 816.667 574.5L853.333 574.5C858.396 574.5 862.5 578.604 862.5 583.667L862.5 620.333C862.5 625.396 858.396 629.5 853.333 629.5L816.667 629.5C811.604 629.5 807.5 625.396 807.5 620.333Z" stroke="#1473E9" stroke-width="4.58333" stroke-miterlimit="8" fill="#0F92F4" fill-rule="evenodd"/><g><g><g><path d="M852.437 590.406C852.437 586.883 849.555 584 846.031 584 842.498 584.011 839.636 586.873 839.625 590.406 839.625 593.93 842.508 596.812 846.031 596.812 849.555 596.812 852.437 593.93 852.437 590.406ZM852.437 616.031C852.437 612.508 849.555 609.625 846.031 609.625 842.498 609.636 839.636 612.498 839.625 616.031 839.625 619.555 842.508 622.438 846.031 622.438 849.555 622.438 852.437 619.555 852.437 616.031ZM849.875 590.406C849.875 592.543 848.168 594.25 846.031 594.25 843.894 594.25 842.187 592.543 842.187 590.406 842.187 588.269 843.894 586.563 846.031 586.563 848.168 586.563 849.875 588.269 849.875 590.406ZM849.875 616.031C849.875 618.168 848.168 619.875 846.031 619.875 843.894 619.875 842.187 618.168 842.187 616.031 842.187 613.894 843.894 612.188 846.031 612.188 848.168 612.188 849.875 613.894 849.875 616.031ZM838.943 595.813C838.416 595.133 837.99 594.38 837.677 593.579L827.804 599.07C826.6 597.646 824.833 596.821 822.969 596.812 819.435 596.824 816.574 599.685 816.562 603.219 816.562 606.742 819.445 609.625 822.969 609.625 824.903 609.625 826.625 608.736 827.804 607.37L837.677 612.859C837.99 612.049 838.421 611.306 838.943 610.627L829.052 605.13C829.239 604.526 829.375 603.888 829.375 603.219 829.375 602.55 829.242 601.914 829.049 601.307ZM826.812 603.219C826.812 605.356 825.106 607.062 822.969 607.062 820.832 607.062 819.125 605.356 819.125 603.219 819.125 601.082 820.832 599.375 822.969 599.375 825.106 599.375 826.812 601.082 826.812 603.219Z" fill="#FFFFFF"/></g></g></g></g></svg>