<svg width="60" height="60" xmlns="http://www.w3.org/2000/svg" xmlns:xlink="http://www.w3.org/1999/xlink" xml:space="preserve" overflow="hidden"><g transform="translate(-455 -572)"><path d="M457.5 583.667C457.5 578.604 461.604 574.5 466.667 574.5L503.333 574.5C508.396 574.5 512.5 578.604 512.5 583.667L512.5 620.333C512.5 625.396 508.396 629.5 503.333 629.5L466.667 629.5C461.604 629.5 457.5 625.396 457.5 620.333Z" stroke="#1473E9" stroke-width="4.58333" stroke-miterlimit="8" fill="#0F92F4" fill-rule="evenodd"/><g><g><g><path d="M498.63 584.105C498.279 584.093 497.928 584.107 497.579 584.146L479.103 587.029C477.02 587.239 476.795 588.213 476.813 589.425L476.813 613.82C475.754 613.123 474.619 612.628 473.11 612.628 471.162 612.628 470.001 613.371 469.299 614.355 468.597 615.337 468.364 616.572 468.364 617.528 468.364 618.681 468.761 619.908 469.614 620.846 470.47 621.784 471.782 622.443 473.668 622.443 475.8 622.443 477.297 621.848 478.145 620.685 478.811 619.77 479.183 618.545 479.316 617.038 479.334 616.854 479.342 616.664 479.355 616.472 479.365 616.318 479.362 616.211 479.365 616.031L479.375 616.031 479.375 596.292C479.431 594.704 480.872 594.47 480.872 594.47L495.872 592.128C497.31 591.688 497.312 593.469 497.312 593.469L497.312 611.257C496.254 610.56 495.119 610.066 493.61 610.066 491.662 610.066 490.501 610.809 489.799 611.793 489.097 612.774 488.864 614.009 488.864 614.965 488.864 616.118 489.261 617.346 490.114 618.284 490.97 619.222 492.282 619.88 494.168 619.88 496.3 619.88 497.797 619.286 498.645 618.122 499.311 617.207 499.683 615.983 499.816 614.476 499.834 614.291 499.842 614.102 499.854 613.909 499.865 613.756 499.862 613.648 499.865 613.469L499.875 613.469 499.875 586.388C499.906 584.63 499.516 584.167 498.63 584.105Z" fill="#FFFFFF" fill-rule="evenodd"/></g></g></g></g></svg>