<svg width="60" height="60" xmlns="http://www.w3.org/2000/svg" xmlns:xlink="http://www.w3.org/1999/xlink" xml:space="preserve" overflow="hidden"><g transform="translate(-1154 -572)"><path d="M1156.5 583.667C1156.5 578.604 1160.6 574.5 1165.67 574.5L1202.33 574.5C1207.4 574.5 1211.5 578.604 1211.5 583.667L1211.5 620.333C1211.5 625.396 1207.4 629.5 1202.33 629.5L1165.67 629.5C1160.6 629.5 1156.5 625.396 1156.5 620.333Z" stroke="#1473E9" stroke-width="4.58333" stroke-miterlimit="8" fill="#0F92F4" fill-rule="evenodd"/><g><g><g><path d="M1195.47 588.687C1193.35 588.687 1191.62 590.408 1191.62 592.531 1191.62 594.654 1193.35 596.375 1195.47 596.375 1197.59 596.375 1199.31 594.654 1199.31 592.531 1199.31 590.408 1197.59 588.687 1195.47 588.687Z" fill="#FFFFFF"/><path d="M1168.56 583.562 1168.56 619.437 1204.44 619.437 1204.44 583.562ZM1171.12 586.125 1201.87 586.125 1201.87 611.75 1171.12 611.75Z" fill="#FFFFFF"/><path d="M1181.38 595.094 1173.69 609.187 1194.19 609.187 1187.78 597.656 1185.22 601.5Z" fill="#FFFFFF"/></g></g></g></g></svg>