<svg width="60" height="60" xmlns="http://www.w3.org/2000/svg" xmlns:xlink="http://www.w3.org/1999/xlink" xml:space="preserve" overflow="hidden"><g transform="translate(-571 -572)"><path d="M573.5 583.667C573.5 578.604 577.604 574.5 582.667 574.5L619.333 574.5C624.396 574.5 628.5 578.604 628.5 583.667L628.5 620.333C628.5 625.396 624.396 629.5 619.333 629.5L582.667 629.5C577.604 629.5 573.5 625.396 573.5 620.333Z" stroke="#1473E9" stroke-width="4.58333" stroke-miterlimit="8" fill="#0F92F4" fill-rule="evenodd"/><g><g><g><path d="M584.562 586.125 584.562 619.437 587.125 619.437 587.125 616.875 589.687 616.875 589.687 619.437 617.875 619.437 617.875 616.875 620.437 616.875 620.437 619.437 623 619.437 623 586.125 620.437 586.125 620.437 588.687 617.875 588.687 617.875 586.125 589.687 586.125 589.687 588.687 587.125 588.687 587.125 586.125ZM592.25 588.687 615.312 588.687 615.312 601.5 592.25 601.5ZM587.125 591.25 589.687 591.25 589.687 593.812 587.125 593.812ZM617.875 591.25 620.437 591.25 620.437 593.812 617.875 593.812ZM587.125 596.375 589.687 596.375 589.687 598.937 587.125 598.937ZM617.875 596.375 620.437 596.375 620.437 598.937 617.875 598.937ZM587.125 601.5 589.687 601.5 589.687 604.062 587.125 604.062ZM617.875 601.5 620.437 601.5 620.437 604.062 617.875 604.062ZM592.25 604.062 615.312 604.062 615.312 616.875 592.25 616.875ZM587.125 606.625 589.687 606.625 589.687 609.187 587.125 609.187ZM617.875 606.625 620.437 606.625 620.437 609.187 617.875 609.187ZM587.125 611.75 589.687 611.75 589.687 614.312 587.125 614.312ZM617.875 611.75 620.437 611.75 620.437 614.312 617.875 614.312Z" fill="#FFFFFF"/></g></g></g></g></svg>