<svg width="60" height="60" xmlns="http://www.w3.org/2000/svg" xmlns:xlink="http://www.w3.org/1999/xlink" xml:space="preserve" overflow="hidden"><g transform="translate(-338 -572)"><path d="M340.5 583.667C340.5 578.604 344.604 574.5 349.667 574.5L386.333 574.5C391.396 574.5 395.5 578.604 395.5 583.667L395.5 620.333C395.5 625.396 391.396 629.5 386.333 629.5L349.667 629.5C344.604 629.5 340.5 625.396 340.5 620.333Z" stroke="#1473E9" stroke-width="4.58333" stroke-miterlimit="8" fill="#0F92F4" fill-rule="evenodd"/><g><g><g><path d="M352.562 584 352.562 625 377.547 625 388.437 614.109 388.437 584ZM355.125 586.563 385.875 586.563 385.875 612.188 375.625 612.188 375.625 622.438 355.125 622.438ZM360.25 591.688 360.25 594.25 380.75 594.25 380.75 591.688ZM360.25 596.812 360.25 599.375 380.75 599.375 380.75 596.812ZM360.25 601.938 360.25 604.5 380.75 604.5 380.75 601.938ZM360.25 607.062 360.25 609.625 367.937 609.625 367.937 607.062Z" fill="#FFFFFF"/></g></g></g></g></svg>