<svg width="60" height="60" xmlns="http://www.w3.org/2000/svg" xmlns:xlink="http://www.w3.org/1999/xlink" xml:space="preserve" overflow="hidden"><g transform="translate(-1038 -572)"><path d="M1040.5 583.667C1040.5 578.604 1044.6 574.5 1049.67 574.5L1086.33 574.5C1091.4 574.5 1095.5 578.604 1095.5 583.667L1095.5 620.333C1095.5 625.396 1091.4 629.5 1086.33 629.5L1049.67 629.5C1044.6 629.5 1040.5 625.396 1040.5 620.333Z" stroke="#1473E9" stroke-width="4.58333" stroke-miterlimit="8" fill="#0F92F4" fill-rule="evenodd"/><g><g><g><path d="M1075.19 627 1073.96 624.637C1072.83 622.435 1071.87 620.151 1071.07 617.806 1070.7 616.736 1070.37 615.649 1070.09 614.549L1070.06 614.403 1070.06 588.563C1070.06 588.563 1070.06 586 1072.62 586L1077.75 586C1077.75 586 1080.31 586 1080.31 588.563L1080.31 614.403 1080.28 614.549C1080.21 614.862 1079.93 615.951 1079.3 617.806 1078.51 620.151 1077.54 622.434 1076.42 624.637ZM1074.65 619.202 1075.72 619.202C1076.08 618.395 1076.47 617.537 1076.68 616.914 1077.26 615.223 1077.75 614.172 1077.75 614.188L1072.62 614.188C1072.62 614.164 1073.11 615.22 1073.69 616.914 1073.9 617.539 1074.3 618.395 1074.65 619.202ZM1072.62 593.688 1077.75 593.688 1077.75 588.563 1072.62 588.563Z" fill="#FFFFFF"/><path d="M1054.69 586 1054.69 624.438 1067.5 624.438 1067.5 586ZM1057.25 588.563 1064.94 588.563 1064.94 591.125 1062.38 591.125 1062.38 593.688 1064.94 593.688 1064.94 596.25 1062.38 596.25 1062.38 598.813 1064.94 598.813 1064.94 601.375 1062.38 601.375 1062.38 603.938 1064.94 603.938 1064.94 606.5 1062.38 606.5 1062.38 609.063 1064.94 609.063 1064.94 611.625 1062.38 611.625 1062.38 614.188 1064.94 614.188 1064.94 616.75 1062.38 616.75 1062.38 619.313 1064.94 619.313 1064.94 621.875 1057.25 621.875Z" fill="#FFFFFF"/></g></g></g></g></svg>