<svg width="60" height="60" xmlns="http://www.w3.org/2000/svg" xmlns:xlink="http://www.w3.org/1999/xlink" xml:space="preserve" overflow="hidden"><g transform="translate(-922 -572)"><path d="M924.5 583.667C924.5 578.604 928.604 574.5 933.667 574.5L970.333 574.5C975.396 574.5 979.5 578.604 979.5 583.667L979.5 620.333C979.5 625.396 975.396 629.5 970.333 629.5L933.667 629.5C928.604 629.5 924.5 625.396 924.5 620.333Z" stroke="#1473E9" stroke-width="4.58333" stroke-miterlimit="8" fill="#0F92F4" fill-rule="evenodd"/><g><g><g><path d="M917.373 105.062 917.373 120.437 911.541 120.437C911.541 120.437 915.725 128.034 923.779 139.221 931.83 128.035 936.012 120.442 936.012 120.442L930.185 120.442 930.185 105.062ZM919.935 107.625 927.623 107.625 927.623 123.005 931.559 123.005 923.779 134.581 915.999 123 919.935 123ZM912.248 140.937 912.248 143.5 935.31 143.5 935.31 140.937Z" fill="#FFFFFF" transform="matrix(1.00001 0 0 1 28.9941 481.5)"/></g></g></g></g></svg>