<svg width="60" height="60" xmlns="http://www.w3.org/2000/svg" xmlns:xlink="http://www.w3.org/1999/xlink" xml:space="preserve" overflow="hidden"><g transform="translate(-688 -572)"><path d="M690.5 583.667C690.5 578.604 694.604 574.5 699.667 574.5L736.333 574.5C741.396 574.5 745.5 578.604 745.5 583.667L745.5 620.333C745.5 625.396 741.396 629.5 736.333 629.5L699.667 629.5C694.604 629.5 690.5 625.396 690.5 620.333Z" stroke="#1473E9" stroke-width="4.58333" stroke-miterlimit="8" fill="#0F92F4" fill-rule="evenodd"/><g><g><g><path d="M733.875 593.812 733.875 588.687 728.745 588.687Z" fill="#FFFFFF"/><path d="M703.125 598.937 703.125 619.437 726.188 619.437 726.188 616.875 705.688 616.875 705.688 597.228ZM731.318 596.375 731.313 619.437 733.875 619.437 733.875 598.937Z" fill="#FFFFFF"/><path d="M718.5 604.026C719.015 603.903 719.533 603.799 720.056 603.714 720.704 603.604 721.447 603.55 722.29 603.55 723.046 603.55 723.674 603.66 724.174 603.88 724.673 604.085 725.07 604.385 725.365 604.777 725.67 605.154 725.883 605.613 726.006 606.148 726.126 606.686 726.188 607.276 726.188 607.924L726.188 617.387 718.5 617.387Z" fill="#FFFFFF"/><path d="M718.5 581.751 698.374 601.874 700.189 603.688 718.5 585.374 736.812 603.688 738.626 601.874Z" fill="#FFFFFF" fill-rule="evenodd"/></g></g></g></g></svg>